/* XPM */
static char *_23c628f8feb4235a7863b3402fd6df9XweKOZ0vL1Qynk59[] = {
/* columns rows colors chars-per-pixel */
"100 100 5 1 ",
"  c None",
". c black",
"X c #FF5203",
"o c #F2D45A",
"O c white",
/* pixels */
"                                                                                                    ",
"                                                                                                    ",
"                                                                                                    ",
"                                                                                                    ",
"                                                                                                    ",
"                                                                                                    ",
"                                                                                                    ",
"                                                                                                    ",
"                                                                                                    ",
"                                                                                                    ",
"                                                                                                    ",
"                                                                                                    ",
"                                                                                                    ",
"                                                                                                    ",
"                                                                                                    ",
"                                                                                                    ",
"                                                                                                    ",
"                                                   ....                                             ",
"                                                  .....                                             ",
"                                                ...XXX..                                            ",
"                                                .XXXXXX.                                            ",
"                                              ..XXXXXXXX.                                           ",
"                                             ..XXXXXXXXX..                                          ",
"                                           ...XXXXXXXXXXX...                                        ",
"                               ...      .....XXXXXXXoXXXXX..                                        ",
"                              ..X.    ...XXXXXXXXXXXoXXXXXX......                                   ",
"                              ..XX.. ..XXXXXXXXXXXXooXXXXXX..XXXX.                                  ",
"                              .XXX....XXXXXXXXXXXXoooXoXXXXXXXXXX..                                 ",
"                              .XXXX...XXXXXXXXXXXooooooXXXXXXXXXXX.                                 ",
"                              .XXXXX.XXXXXXXXXXXXoooooooXXXoXXXXXX.                                 ",
"                          ..  .XXXXXXXXXXXXXXXXXooooooooXXXoXXXXXX..                                ",
"                          .....XXXXXXXXXXXXXXXXXooooooooXXooXXXXXX..                                ",
"                          .X...XXXXXXXXXXXXXXXXXoooooooooXooXooXXX..                                ",
"                          .XX....XXXXXXXXXXXXXXooooooooooooooooXXX..                                ",
"                         .XXXX...XXXXXXXXXXXXXoooooooooooooooooXXX..                                ",
"                         .XXXXXX.XXXXXXXXXXXXXooooooooooooooooooXXX.                                ",
"                         .XXXXXXX.XXXXXXXXXXXXooooooooooooooooooXXX...                              ",
"                         .XXXXXXXX.XXXooXXXXXXooooooooooooooooooXXXXX.....                          ",
"                         .XXXXooXXXXXXooooXXXooooooooooooooooooooXXXXXXXX...                        ",
"                         .XXXooooXXXXXoooooXXoooooooooooooooooooooXXXXXXXXX.                        ",
"                         .XXXooooooXXXooooooooooooooooooooooooooooooXXXXXX.                         ",
"                         .XXXooooooooXoooooooooooooooooooooooooooooooXXXX.                          ",
"                         .XXXooooooooooooooooooooooooooooooooooooooooXXX..                          ",
"                         .XXXooooooooooooooooooooooooooooooooooooooooXX..                           ",
"                         .XXXooooooooooooooooooooooooooooooooooooooooXX..                           ",
"                         .XXXooooooooo...oooooooooooooooooo...oooooooXX..                           ",
"                         .XXXooooooo..OOO..oooooooooooooo..OOO..oooooXX.                            ",
"                         .XXXXoooooo.OOOOO.oooooooooooooo.OOOOO.oooooXX.                            ",
"                         ..XXXooooo.OOOOOOO.oooooooooooo.OOOOOOO.ooooXX.                            ",
"                          .XXXooooo.OOO..OO.oooooooooooo.OO..OOO.ooooX..                            ",
"                          ..XXooooo.OOO..OO.oooooooooooo.OO..OOO.ooooX..                            ",
"                          ..XXoooooo.OOOOO.oooooooooooooo.OOOOO.oooooX..                            ",
"                           ..Xoooooo..OOO..oooooooooooooo..OOO..oooooX..                            ",
"                           ..XXooooooo...oooooooooooooooooo...oooooooX..                            ",
"                           ..XXoooooooooooooooooooooooooooooooooooooXX..                            ",
"                           ..XXoooooooooooooooooooooooooooooooooooooXX..                            ",
"                            .XXoooooooooooooooooooooooooooooooooooooXX..                            ",
"                            .XXooooooooo....oooooooooooooooooooooooXXX.                             ",
"                            ..XXooooooo.XXX...oooooooooo.....ooooooXX..                             ",
"                             .XXoooooo.XXXXXX...oooooo...XXXX.ooooXXX.                              ",
"                             .XXoooooo.XXXXXXXX........XXXXXX.ooooXXX.                              ",
"                             ..XXooooo.XXXXXXXXXXXXXXXXXXXXXX.oooXXX.                               ",
"                              ..XXooooo..XXXXXXXXXXXXXXXXXXX..oooXX.                                ",
"                               .XXoooooo...XXXXXXXXXXXXXXXX..ooooXX.                                ",
"                                .XXoooooo...XXXXXXXXXXX.....ooooXX.                                 ",
"                                 .XXooooooo..............oooooooX.                                  ",
"                                  .XXXoooooooooooooooooooooooooX.                                   ",
"                                   .XXXooooooooooooooooooooooXX.                                    ",
"                                    .XXXXooooooooooooooooXXXXX.                                     ",
"                                     ..XXXXXXXXXXXXXXXXXXXXX..                                      ",
"                                       ..XXXXXXXXXXXXXXXXX..                                        ",
"                                         ....XXXXXXXXX....                                          ",
"                                             .........                                              ",
"                                                                                                    ",
"                                                                                                    ",
"                                                                                                    ",
"                                                                                                    ",
"                                                                                                    ",
"                                                                                                    ",
"                                                                                                    ",
"                                                                                                    ",
"                                                                                                    ",
"                                                                                                    ",
"                                                                                                    ",
"                                                                                                    ",
"                                                                                                    ",
"                                                                                                    ",
"                                                                                                    ",
"                                                                                                    ",
"                                                                                                    ",
"                                                                                                    ",
"                                                                                                    ",
"                                                                                                    ",
"                                                                                                    ",
"                                                                                                    ",
"                                                                                                    ",
"                                                                                                    ",
"                                                                                                    ",
"                                                                                                    ",
"                                                                                                    "
};
