/* XPM */
static char *_f1402058aeb46b8d196e11e6a89e6298ZtHzaRBNrdgoEGi[] = {
/* columns rows colors chars-per-pixel */
"100 100 5 1 ",
"  c None",
". c black",
"X c #FF5203",
"o c #F2D45A",
"O c white",
/* pixels */
"                                                                                                    ",
"                                                                                                    ",
"                                                                                                    ",
"                                                                                                    ",
"                                                                                                    ",
"                                                                                                    ",
"                                                                                                    ",
"                                                                                                    ",
"                                                                                                    ",
"                                                                                                    ",
"                                                                                                    ",
"                                                                                                    ",
"                                                                                                    ",
"                                                                                                    ",
"                                                                                                    ",
"                                                       ..                                           ",
"                                                      .X.                                           ",
"                                                    ..XX.                                           ",
"                                                   .XXXX.                                           ",
"                           ..                      .XXXX.                                           ",
"                           .X..                   .XXXXXX.                                          ",
"                            .X.       .          .XXXXXXXX                                          ",
"                             .X.    ..X        ..XXXoXXXXX.                                         ",
"                              ..  ...XX.     ..XXXXooooXXX.                                         ",
"                               . .XXXXX.   ..XXXXooooooXXX.      .                                  ",
"                                .XXXXX......XXXoooooooooXX..     .....                              ",
"                               .XXXXXX...XX.XXoooooooooooX....    ...X.                             ",
"                               .XXXXX.XXXXXXXooooooooooooXXXXX.    .XX..                            ",
"                               .XXXXX.XXXXXooooooooooooooXXXoXX.    .XX.                            ",
"                              .XXXXoXXXXXXXooooooooooooooXXoXoXX.   .XX.                            ",
"                       ..... .XXXXoooXXoXXooooooooooooooooXooooXX.  ..X.                            ",
"                      ...XXX..XXXXoooXoooooooooooooooooooooooooXX.   ...                            ",
"                      .XXXXXXXXXXooooooooooooooooooooooooooooooXXX.   ..                            ",
"                       .XXXXXXXXXooooooooooooooooooooooooooooooXX....                               ",
"                       .XXoooooXXooooooooooooooooooooooooooooooXXXXXX...                            ",
"                       ..XXoooooooooooooooooooooooooooooooooooooXXooX X.  ..                        ",
"                        .XXXooooooooooooooooooooooooooooooooooooXooooXX.  ..                        ",
"                        .XXooooooooooooooooooooooooooooooooooooooooooXX.  .X.                       ",
"                        .XXXoooooooooooooooooooooooooooooooooooooooooXX.   .X.                      ",
"                        .XXXoooooooooooooooooooooooooooooooooooooooooXX.    .X.                     ",
"                        .XXXoooooooooooooooooooooooooooooooooooooooooXX.     ..                     ",
"                        .XXXoooooooooooooooooooooooooooooooooooooooooXX.     .                      ",
"                        .XXXoooooooooooooooooooooooooooooooooooooooooXX.                            ",
"                        .XXXoooooooooooooooooooooooooooooooooooooooooXX.                            ",
"                        .XXXXooooooooooooooooooooooooooooooooooooooooXX.                            ",
"                        .XXXXooooooooo...oooooooooooooooooo...oooooooXX.                            ",
"                        ..XXXooooooo..OOO..oooooooooooooo..OOO..oooooXX.                            ",
"                         .XXXXoooooo.OOOOO.oooooooooooooo.OOOOO.oooooXX.                            ",
"                         ..XXXooooo.OOOOOOO.oooooooooooo.OOOOOOO.ooooXX.                            ",
"                          .XXXooooo.OOO..OO.oooooooooooo.OO..OOO.ooooX..                            ",
"                          ..XXooooo.OOO..OO.oooooooooooo.OO..OOO.ooooX..                            ",
"                          ..XXoooooo.OOOOO.oooooooooooooo.OOOOO.oooooX..                            ",
"                           ..Xoooooo..OOO..oooooooooooooo..OOO..oooooX..                            ",
"                           ..XXooooooo...oooooooooooooooooo...oooooooX..                            ",
"                           ..XXoooooooooooooooooooooooooooooooooooooXX..                            ",
"                           ..XXoooooooooooooooooooooooooooooooooooooXX..                            ",
"                            .XXoooooooooooooooooooooooooooooooooooooXX..                            ",
"                            .XXooooooooooooooooooooooooooooooooooooXXX.                             ",
"                            ..XXoooooooooooooooooooooooooooooooooooXX..                             ",
"                             .XXooooooooooooooooooooooooooooooooooXXX.                              ",
"                             .XXoooooooooooooo.......oooooooooooooXXX.                              ",
"                             ..XXoooooooooooo.XXXXXXX.oooooooooooXXX.                               ",
"                              ..XXooooooooooo.XXXXXXX.oooooooooooXX.                                ",
"                               .XXooooooooooo.XXXXXXX.oooooooooooXX.                                ",
"                                .XXoooooooooo..XXXXXX.ooooooooooXX.                                 ",
"                                 .XXoooooooooo.......oooooooooooX.                                  ",
"                                  .XXXoooooooooooooooooooooooooX.                                   ",
"                                   .XXXooooooooooooooooooooooXX.                                    ",
"                                    .XXXXooooooooooooooooXXXXX.                                     ",
"                                     ..XXXXXXXXXXXXXXXXXXXXX..                                      ",
"                                       ..XXXXXXXXXXXXXXXXX..                                        ",
"                                         ....XXXXXXXXX....                                          ",
"                                             .........                                              ",
"                                                                                                    ",
"                                                                                                    ",
"                                                                                                    ",
"                                                                                                    ",
"                                                                                                    ",
"                                                                                                    ",
"                                                                                                    ",
"                                                                                                    ",
"                                                                                                    ",
"                                                                                                    ",
"                                                                                                    ",
"                                                                                                    ",
"                                                                                                    ",
"                                                                                                    ",
"                                                                                                    ",
"                                                                                                    ",
"                                                                                                    ",
"                                                                                                    ",
"                                                                                                    ",
"                                                                                                    ",
"                                                                                                    ",
"                                                                                                    ",
"                                                                                                    ",
"                                                                                                    ",
"                                                                                                    ",
"                                                                                                    ",
"                                                                                                    "
};
