/* XPM */
static char *ac148e6e1ec14123a8be9547e0306e73EENZ9lQaupXYAjK0[] = {
/* columns rows colors chars-per-pixel */
"100 100 5 1 ",
"  c None",
". c black",
"X c #FF5203",
"o c #F2D45A",
"O c white",
/* pixels */
"                                                                                                    ",
"                                                                                                    ",
"                                                                                                    ",
"                                                                                                    ",
"                                                                                                    ",
"                                                                                                    ",
"                                                                                                    ",
"                                                                                                    ",
"                                                                                                    ",
"                                                                                                    ",
"                                                                                                    ",
"                                                                                                    ",
"                                                                                                    ",
"                                                                                                    ",
"                                                                                                    ",
"                                                                                                    ",
"                                                                                                    ",
"                                                                                                    ",
"                                                                                                    ",
"                                         .....         .                                            ",
"                                  ...   .XXXXX..      .X.                                           ",
"                                 .XXX.   .XXXXXX.     .XX.                                          ",
"                                  .....  .XXoXXXX.    .XXX.                                         ",
"                                         .XXooXXXX.   .XXXX.                                        ",
"                              ........   .XoooXXXXX. .XXXXX.                                        ",
"                             ..XXXXXXX...XXXoooXXXXX.XXXoXXX.                                       ",
"                               .XXXXXXXXXXXooooooXXXXXXXoooXX.                                      ",
"                      ...       .XXooXXXXXXoooooooXXXXXXooooX.                                      ",
"                     .XXX.      .XXXooXXXXXoooooooooXXXoooooXX.                                     ",
"                      .....    .XXXXoooXXXXooooooooooXXoooooXXX.                                    ",
"                              .XXXXXoooooXooooooooooooooooooooXX.                                   ",
"                       .......XXXXXXoooooooooooooooooooooooooooXX.                                  ",
"                        .XXXXXXXXXXoooooooooooooooooooooooooooooX.                                  ",
"                         .XXXooooXooooooooooooooooooooooooooooooXX.                                 ",
"                          .XXXoooooooooooooooooooooooooooooooooooXX.                                ",
"                     ......XXXXooooooooooooooooooooooooooooooooooXX.                                ",
"                      .XX.XXXXooooooooooooooooooooooooooooooooooooXX.                               ",
"                       .XXXXXXooooooooooooooooooooooooooooooooooooXX.                               ",
"                        .XXooooooooooooooooooooooooooooooooooooooooX.                               ",
"                        .XXXXooooooooooooooooooooooooooooooo...ooooXX.                              ",
"                         ..XXooooooooooooooooooooooooooooo..OOO..oooX.                              ",
"                         ..XXXoooooooooooooooooooooooooooo.OOOOO.oooX.                              ",
"                          ..XXooooooooooooooooooooooooooo.OOOO..O.ooX.                              ",
"                          ..XXooooooooooooooooooooooooooo.OOOO..O.ooX.                              ",
"                           .XXooooooooooooooooooooooooooo.OOOOOOO.ooX.                              ",
"                           .XXXooooooooooooooooooooooooooo.OOOOO.oooX.                              ",
"                           .XXXooooooooooooooooooooooooooo..OOO..oooX.                              ",
"                          .XXXXooooooooooooooooooooooooooooo...oooooX.                              ",
"                          .XXXXoooooooooooooooooooooooooooooooooooooX.                              ",
"                          .XXXXoooooooooooooooooooooooooooooooooooooX.                              ",
"                          ..XXXXooooooooooooooooooooooooooooooooooooX.                              ",
"                          ..XXXXoooooooooooooooooooooooooooooooooooXX.                              ",
"                           .XXXXoooooooooooooooooooooooooooooooooooXX.                              ",
"                           .XXXXooooooooooooooooooooooooooooooooooXXX.                              ",
"                           ..XXXooooooooooooooooooooooooooooooooo.....                              ",
"                           ..XXXooooooooooooooooooooooooooooooo..XXXX.                              ",
"                            .XXXoooooooooooooooooooooooooooooo.XXXXXX.                              ",
"                            .XXXXoooooooooooooooooooooooooooo.XXXXXX.                               ",
"                            ..XXXoooooooooooooooooooooooooooo.XXXXXX.                               ",
"                             .XXXXoooooooooooooooooooooooooooo.XXXXX.                               ",
"                             .XXXXooooooooooooooooooooooooooooo.XXX.                                ",
"                             ..XXXoooooooooooooooooooooooooooooo....                                ",
"                              ..XXoooooooooooooooooooooooooooooooXX.                                ",
"                               .XXoooooooooooooooooooooooooooooooXX.                                ",
"                                .XXoooooooooooooooooooooooooooooXX.                                 ",
"                                 .XXooooooooooooooooooooooooooooX.                                  ",
"                                  .XXXoooooooooooooooooooooooooX.                                   ",
"                                   .XXXooooooooooooooooooooooXX.                                    ",
"                                    .XXXXooooooooooooooooXXXXX.                                     ",
"                                     ..XXXXXXXXXooooXXXXXXXX..                                      ",
"                                       ..XXXXXXXXXXXXXXXXX..                                        ",
"                                         ....XXXXXXXXX....                                          ",
"                                             .........                                              ",
"                                                                                                    ",
"                                                                                                    ",
"                                                                                                    ",
"                                                                                                    ",
"                                                                                                    ",
"                                                                                                    ",
"                                                                                                    ",
"                                                                                                    ",
"                                                                                                    ",
"                                                                                                    ",
"                                                                                                    ",
"                                                                                                    ",
"                                                                                                    ",
"                                                                                                    ",
"                                                                                                    ",
"                                                                                                    ",
"                                                                                                    ",
"                                                                                                    ",
"                                                                                                    ",
"                                                                                                    ",
"                                                                                                    ",
"                                                                                                    ",
"                                                                                                    ",
"                                                                                                    ",
"                                                                                                    ",
"                                                                                                    ",
"                                                                                                    "
};
