/* XPM */
static char *_c6cb7d1f9694ad5fcad8aaf6b36c595h1YuOi0EKO3QI4Uo[] = {
/* columns rows colors chars-per-pixel */
"100 100 4 1 ",
"  c None",
". c black",
"X c #FF5203",
"o c #F2D45A",
/* pixels */
"                                                                                                    ",
"                                                                                                    ",
"                                                                                                    ",
"                                                                                                    ",
"                                                                                                    ",
"                                                                                                    ",
"                                                                                                    ",
"                                                                                                    ",
"                                                                                                    ",
"                                                                                                    ",
"                                                                                                    ",
"                                                                                                    ",
"                                                                                                    ",
"                                                                                                    ",
"                                                                                                    ",
"                                                                                                    ",
"                                          .X..               .                                      ",
"                                  ...    .XXXX..              ..                                    ",
"                                 .XXX.   .XXXXXX.             .X..                                  ",
"                                .X..X..  .XXXXXXX.....   ...   ..                                   ",
"                                 ..X..  .XXXXXXXXXXXXX....X.   .X.                                  ",
"                                   .   ..XXXoooXXXXXXXX..XX.   ..X.                                 ",
"                                       .XXXXoooooXXXoXXXXXoX.   ..                                  ",
"                           ...         .XXXXooooooXooooXXXoXX..                                     ",
"                          .XXX..      ..XXXXoooooooooooXooooXXX.......                              ",
"                           .XXXX..    ..XXXoooooooooooooooooXXXXXXXXX..                             ",
"                           .XXXXXX.   .X.XXooooooooooooooooooXXXXXXXXX...                           ",
"                           .XXXXXXX...XXXXXooooooooooooooooooXXXXooXoXX.....                        ",
"                           .XXXXXXX..XXXXXXooooooooooooooooooooooooooXXXX..                         ",
"                           ..XXXoXXoXXXXXXXooooooooooooooooooooooooooXXX.                           ",
"                            .XXooooooXXoXXooooooooooooooooooooooooooXXX.                            ",
"                           .XXXooooooXooooooooooooooooooooooooooooooXXX.                            ",
"                           .XXXoooooooooooooooooooooooooooooooooooooXXX.                            ",
"                          .XXXooooooooooooooooooooooooooooooooooooooXX.                             ",
"                          .XXoooooooooooooooooooooooooooooooooooooooXX..                            ",
"                          XXXoooooooooooooooooooooooooooooooooooooooXX..                            ",
"                         .XXXXoooooooooooooooooooooooooooooooooooooooXX.                            ",
"                         .XXXooooooooooooooooooooooooooooooooooooooooXX.                            ",
"                         .XXXooooooooooooooooooooooooooooooooooooooooXX.                            ",
"                        .XXXoooooooooooooooooooooooooooooooooooooooooXX.                            ",
"                        .XXXoooooooooooooooooooooooooooooooooooooooooXX.                            ",
"                        .XXXoooooooooooooooooooooooooooooooooooooooooXX.                            ",
"                         .XXoooooooooooooooooooooooooooooooooooooooooXX.                            ",
"                         .XXXooooooooooooooooooooooooooooooooooooooooXX.                            ",
"                         .XXXooooooooooooooooooooooooooooooooooooooooXX.                            ",
"                         .XXXooooooooooooooooooooooooooooooooooooooooXX.                            ",
"                         .XXXooooooooooooooooooooooooooooooooooooooooXX.                            ",
"                         .XXXXoooooooooooooooooooooooooooooooooooooooXX.                            ",
"                         .XXXXoooooooooooooooooooooooooooooooooooooooXX.                            ",
"                          .XXXoooooooooooooooooooooooooooooooooooooooX..                            ",
"                          ..XXoooooooooooooooooooooooooooooooooooooooX..                            ",
"                          ..XXoooooooooooooooooooooooooooooooooooooooX..                            ",
"                           ..XoooooooooooooooooooooooooooooooooooooooX..                            ",
"                           ..XXooooooooooooooooooooooooooooooooooooooX..                            ",
"                           ..XXoooooooooooooooooooooooooooooooooooooXX..                            ",
"                           ..XXoooooooooooooooooooooooooooooooooooooXX..                            ",
"                            .XXoooooooooooooooooooooooooooooooooooooXX..                            ",
"                            .XXooooooooooooooooooooooooooooooooooooXXX.                             ",
"                            ..XXoooooooooooooooooooooooooooooooooooXX..                             ",
"                             .XXooooooooooooooooooooooooooooooooooXXX.                              ",
"                             .XXooooooooooooooooooooooooooooooooooXXX.                              ",
"                             ..XXooooooooooooooooooooooooooooooooXXX.                               ",
"                              ..XXoooooooooooooooooooooooooooooooXX.                                ",
"                               .XXoooooooooooooooooooooooooooooooXX.                                ",
"                                .XXoooooooooooooooooooooooooooooXX.                                 ",
"                                 .XXooooooooooooooooooooooooooooX.                                  ",
"                                  .XXXoooooooooooooooooooooooooX.                                   ",
"                                   .XXXooooooooooooooooooooooXX.                                    ",
"                                    .XXXXooooooooooooooooXXXXX.                                     ",
"                                     ..XXXXXXXXXXXXXXXXXXXXX..                                      ",
"                                       ..XXXXXXXXXXXXXXXXX..                                        ",
"                                         ....XXXXXXXXX....                                          ",
"                                             .........                                              ",
"                                                                                                    ",
"                                                                                                    ",
"                                                                                                    ",
"                                                                                                    ",
"                                                                                                    ",
"                                                                                                    ",
"                                                                                                    ",
"                                                                                                    ",
"                                                                                                    ",
"                                                                                                    ",
"                                                                                                    ",
"                                                                                                    ",
"                                                                                                    ",
"                                                                                                    ",
"                                                                                                    ",
"                                                                                                    ",
"                                                                                                    ",
"                                                                                                    ",
"                                                                                                    ",
"                                                                                                    ",
"                                                                                                    ",
"                                                                                                    ",
"                                                                                                    ",
"                                                                                                    ",
"                                                                                                    ",
"                                                                                                    ",
"                                                                                                    "
};
