/* XPM */
static char *result[] = {
/* columns rows colors chars-per-pixel */
"100 100 2 1 ",
"  c #6CA813",
". c #8ACC27",
/* pixels */
"    .        ..  .  ..  .  . .... .....  ....... ...  .. .. .....        .  . .. ........... .      ",
"    .     . .. .  . . ..  .  ... . . .     .... .    .... ....  ..  . .    . .  .............       ",
"        ..  ....  ....... .. ..  . ..   .. ..           . .   .    .     .  ..  .   ...  .. .       ",
"          .  ...      ..    ..... .. . ...  .. .. .   .. .    .     .      .  . .     ......        ",
"    .   . .. ..  ..  ..  .  .    . ... ... ..  .  . .      ...             .  ...  .  .. ...    .   ",
"      .   .. ...    ....     . . .. .    . . .   .   ...  .  . ..    . .    .       .    ...        ",
"..   .     .     .   .. .. . . .. .  .   ....     ........  . .  ..     . ..     .    .  ...        ",
"   .      ....      .. .... .    .  .. . ..  .. . .... .   . . . . .      .. ... . .... .  . .      ",
"..  .    .. ........  . . . .        ... .  ..... . . . .   ..   ..     ...    .  .        .. .   . ",
"...   . .    ..  ...    .   .         . .    ....  .  .....   .   . . .....  . . . .. ....... .     ",
"  .    ..   .... ..    ..   .      .....      . . ..  .... . ..     .  ..  .  .   .. . ..       . . ",
". ..   . ..     ...  ..   .    .  ..  .     ....  ... . ...         .. ..  .              .. .      ",
".       . .  ..... .  .  .   . ...... .   ..  .... ... .  .  .  .  .  .    .    . .. ..   ..    .   ",
" .....   .. ... ....  .      . . .   .. ..     .... .... .. .. .   . ..   .. .......  .  ..  . . . .",
".     . .     . ..      ..    . . ....... . . .  ..... ..   ..      .  .......   .  .   .. ..... .  ",
". .       . ..  .   ... ..   ...  . . ..  .  .. . ... . .    .      . ....  . ..   .  . . ...    .  ",
"....      ..    ....  ....     .. ... ... ...  . .. . .... . .  ...    .. ... . . .     .. .. ... . ",
"....  .. ..    ....   .  . .  .......... .. .    . ....      .... .  ..  ... .        . ..... .  .  ",
"...    .     .... .. . . .  .   .. ... .... . ...  .. . .      . .. .. . .. . .. .  ..... .         ",
".....          . .... .   ........ . ....  .  .. ....   .. . . .  ..  .  ..   . .    . ..     . .   ",
"........  . .   . ... . ..    ... . .... ..     . ....  ...  ... .  . . . .          . ...... . ....",
".....   . .   . ...... .   . .   .. .. .    .  .......   .. .. . . .....  ...   .  ..  . ...... . . ",
"... ...   .    ...........   ... . .   . . .   . . . .. .   . . .  ... .  ....     .  .   .    ..  .",
"...... .    . ......... .. .   .  ...   .     ... ..  .. ...       ....   . ..   .   .  .   .  .....",
"......  .   ..    . ....   ...    .    ..  ...  . . ....  .  . . . ..  ..... . .  .  ...  .  .  . ..",
"......          .. ...  . .             . .. . .   . ..... . . . . ..   . ...           . .    .....",
". .     . .   . ..   .  ..  ...  .   . ..  .    . ...  . . .  . .              .  .     .   ..   ...",
". . .         ......   .   .      .. .. . .. . .. .   ..  .... .  . . ..  .   .      ..        . ...",
". ...    .     .... .   .    . .    .  ...  ... ..  .   .    ...  .   .   .    .            .     ..",
" ..   .    .    . .     . . . .. ... . . .     ...  . .  . ..... .. . . .   ..              ... ..  ",
"..  . .. .  .  . .....  . .    ..    .   .. ........    .... ..        .  ..      .       . . ... ..",
"..             ..    .. .  ..     .  ..  .   .... ..  .  .. ... . . .  .   . ..  .  .      . .. ..  ",
"   .        .......  .. .  .  . .   ..  .. .....  ....  . .  .  .   .  .. . . ...  .  .        ... .",
".  .            .. .   . .. .        .. .... .. ... .......  . .   ...  . . .. . . ..  .      ......",
"   .  .    . .  .. ..   ..  .. ..         . .  ...... ....... . .     .   ... . .  .         .  ..  ",
". .  ..      ...      . ..   .              ..  ...........   .  ...     ..  .      .  .   . .  ....",
" . .         . . ..... ...           ..  .  . . .. . ....  .  .....  ..  ...  . ..  .   .  ..    ...",
"...  . . .     .  ..  ..   .      ..   . ..    . .  ...       . . ........   .  ..          . . ... ",
"... .       .    ..   ...       .      ....  ... .   .  .    . .. . .. ..     ...                .  ",
"...  .      .    . . . . .   ... .       ... ...   .   . ... ..  .. .    .  ..           .   .   ...",
". . .    .  . .    .......            .    .                     .  ..     .  .   .    . . ... .  . ",
"  ..  . .  .    ..   ..  ..       .   ..  . .    . .  ... .  .  ....  .....   .           .  .   .  ",
".  .   .  .   .... ...  .      . .    ..  . .          . ... . ..  ... .                      .. . .",
".  .            .   ..  . .  .         ....         ...          . . .. .  .          .          ...",
". ...           .  .. ... ... .        ...    .  .  . ...   .     .. .    ..    ..   ..       .    .",
"  . .            .       .           . . ..          .           .    .    . ..   . .            ...",
"... .       .     .  .  .         .  ...    .         ..   .    ... . . . .      . .          .   ..",
".. .  . ..                    .     . ...  ...        .              .. .  .  .                    .",
".  .   ..  .   . ..                 . .  ..     ..     .             . .... ..    .    .     .     .",
".              ..              .         . .        .                . ...  ..                  .  .",
".  ...          .   .           .   .         .  . .   .            ..     . . .   . .              ",
".      . .  .. ..... .          . .         .   ..    .. .       .    . . . . ..    . .       .   . ",
"     .   . . ..  . ..  ..     .   .  .              .  .    .     .... .. ...  ..  .     .      .  .",
"  .              .  .       . ..   . . ..      .    . .         .    ..... ....   .     . . .       ",
" .    .    ...... . .. .   .       .         .   .. .   .    .        .... .... .  ....          . .",
" .          . .   .  .          .   . .          . .  .. ...   .. . . ....... . .    ...     .    . ",
"       . ..    .  .     .         . ..          .    .  .      .     ..  .   .  .   . ..    .    .. ",
"       .    .  . .     . .      .  ... .       .   .  .....    ..      . ..   .       ..        . . ",
"        . .. ..  ..  .  .     ..     . .  . .     . .   .  .       .   .   .   . . .......... . .   ",
"       .     . .           .  .......    .       .     . . .    .   ..   . ... .   .  . . .  . . .  ",
"       .        .  .       ...    . .      .     ..   .......  ....  ..      ..   ..  .. .    .     ",
"                   ..       . . .. .. ..       .    . .. .    ..    ...     . ..  .   .            .",
"        .     .   . .     .  .  . .. ..   .        .........     . .    .   .  .   .       ..       ",
"     .    .. .          .  .  .. .  ... .    .    .   .... . .        .. .   .   ..      .      .   ",
" . . ..... .          .   .. .      . ..  .     ..   ....  . ...   .     .  . .     .   . .   .     ",
"  . .. .          . .. .    .  ..   ... . .  .   . . .  .  .. .  ..              . ...     .        ",
". ....    .            .   . ..   .... ....   .. ... ....... . ....     . . .      . .      .. .    ",
"...... .   .              .      .... ....  .. . .   ...... . ...         ....     .   ..           ",
".....       .     .  .       . . .  ..  . .          .. .. ..     .    .   . ...  ...      .  .     ",
".... . .        . .              . .   .  .. ..  .  ... . ...   .    .   . .   ..      ...    .    .",
"......   ..   .        . . . ..  . ..    .     . ........... . .  ..     .   .... ..  .     .       ",
" .... .. .              .    .   .. ..   . . .  .. . ....... ...... .. .   ...         . .          ",
" ...  . .              .                 .  ..   .... ... ..       ..  .......... .  . . .    .     ",
"..... .               ...                . . ..... ..... ...      ... . .........                .  ",
" ..  . .                .   ..  .        ..   .  ............. . .  . ..  ....        .   .    .    ",
".....         .    ..      ...             .  .    ... . .     .  .  .  . ......      .   .   .   . ",
".....     . .  .       .. .   . .               . .. ..........      . ..... ..          .     .    ",
"... . ..    . .        .. ..   .     .       .  .. . ... ... .  ...... .. ... .. .   . .  .  .  .   ",
" .......     . .    .  ..   . .        .   .     .........    ...  ..  .......  . .   .          .. ",
" .. .   .  . ..      ..   ..       .     .       .. ...........  ..... . .... ..   ..               ",
".  .. .  .  . . .. .. .  .   .       ..        .. .. ....    ......  ....... .  .. .      .   .     ",
" ..   .   ...    ..  .....  .   . ..         . .     .. ....  .. .  ...............   .     ..   .  ",
" ... .   .. .  ..... ... .             . .       .  ..........  ....    ........ .  .  ..           ",
" .  .. ..   .    . . ... ...   . . .  .          ... ... ..... ... ... .........  .    ... .      ..",
"..  .  ..          .  . ..  .       ..  .             ....... .   . ............ ....               ",
"   . ...   .       . .. ....     ..        .       ....  ...   ...   .. . .. . ..     .  . .        ",
" . ... ...    ..     ..  . .. .   ...    .        ..... .  .. . ... ........... .....  ..           ",
"  .   .  .  .  .  ...    .   .  .  .. .  .        ........  . .     ....  . .   . .  ...   .        ",
"                  .    .       .  ... .. .  .  .  ... ...... ..  .. . .. ..  ...  ..  .          .  ",
"   .       .              .        ..    .       .. .. ...... ...   ...  .  .  .   .   .      .     ",
"                                  ...   .. .      ...  ..  ..      ...   ..  .. ..  .  .            ",
"           .          .      .                     .. .. .  .    . .. ... .  .  . .  ....          .",
" ..                 .  .    .   .   .            .    .  .  ....  .  ..   . .      ..               ",
"  .                        .    . . .    .        ..      ...  . .  .                .             .",
"                         .          .  . .   .   .     . .     ..   .   .      .  . .             . ",
"    .  .          .   . .    ..    .     .     .           .  ..                                   .",
"    .             ..         .          .   . . .  . .  .. ...           .   . .            .     ..",
"       .  .  .      ..       .     .. .  . .   .    ..  .   . .   .      .    .    .   .           .",
"    . . ...  . ...     . . . . .  ..  ..     .          ....   .  . ..           .   .           ...",
" . ..   ..... . . ... .  . .      . .  . . ....  .  .. . .    .         .  . .  . ..             ..."
};
