/* XPM */
static char *result[] = {
/* columns rows colors chars-per-pixel */
"100 100 6 1 ",
"  c #332009",
". c #29231D",
"X c #3D372F",
"o c #45382C",
"O c #453E35",
"+ c #473F34",
/* pixels */
"........................................................................... ........................",
"....................................................................................................",
"....................................................................................................",
"....................................................................................................",
"................................X...................................................................",
"....................................................................................................",
"..............................X..............................o......................................",
"..............................X.X........X.X........................................................",
"................................X............XX...o.................................................",
"................X.............X.....X.X........X...............X....................................",
".................X......X...X.XX.....X...X...X..o.X...X..o......X...................................",
".....................X.X..XX..XX.X....X..X....XX...oX..o...XX.Xo..........X.........................",
"...........X........X...XXXXX......X..XXX..X.X.X...X..X..........o...X...X......X...................",
".......................X.X.X.XX....XX....X..XX..X....X.X.....oo.X.XX................................",
"...............X.X......X.X...X..X.XX.X.....X.....X....XX...X..X......X.............................",
"......................X...XXX.X.X...X...XX..X..o..o.X.X..XX.X.....X..Xo.XX..........................",
"....................X.X...X.X..............X.X.....XXX.XXX...XX..X..X..XXXXX........................",
"...............X....X...X.....X.XX.XO....X..XX...X..XXo.X.X.X.XXX.XXXX....X.......XXX...............",
"..................X.XX.XXX.....X......X....O.XXX.XXXX...X.X..XXo..X.X..XX.X..XX..XXX................",
"....................X........X......X...XX..X...X.X.XXXX.OX..XXXXXXXX.XXX...X...XX.XX.X.............",
"............X..............X....XXX....X.O.O.O.XOO..X.XX..XXX.XX......XXX...XX...X.....X...o........",
"...........XX.X.X..XX.....XX..XO.X.XX.XXOX....X.OOOXXXO.OX.XXX..XXXo.X..XX.XX.........X.............",
"...................XXX.X.....XXXX.....XOO.XX.OOOOOXXO..X.X.XX.X.X.X.X..X..XX.X.......X..............",
".......................X.....X..XX..OOXXOOXOOOOO.OOXXOX...XXXXXXXXX.X.X....X....X....X..............",
".........X.....X....X.XX..X.XX...X...OOXOOXXOOOXOOXOX.XXXXXXXXXXXXXXXX.OOO..X........X..............",
".....X..........X.....XX.XXX..XXXX..XXXOOOOO.OOOOOOXXXXXXXXXXXXXXX.XOXO.OXXo.........X..............",
"..................X...X.X.XX.XX.XXXOXXOXOOXXXOOO.OO..XXX.X.XOOXXX.XX...OOOO.XX.X...X................",
"..................XX.X..XX.X.X.X.OOO.OX.XOXOOOX.XXXXXX.XXX.XOXXXXXX...OOOOO..X.....X....X...........",
"......................X.X.XX.XXOX.O..O..OOOOXOOX.XO..O.....XXXXXX..X.....OOOXoXX...X.o.X..X.........",
"......................X.OX..X.X.X..OO...X..OXX.XOO.X..XOXXXX.XO...........O.XO......................",
"..................XX......X...XXXXX.X.......OOXXO..XX..O.XXX.XOX..XX......XO.....X..................",
"................XXX.O..X...X.X.X.OXX.X......OX.OXXX..X.O.X........XX................................",
".................XX...X......XX...OOX..X...O.X...X......X.X.XOXXX.O...O..............X..............",
"..................X.X....X...X...X..X.......OO..OOX....X.XO.X.X.O.X.X......O........................",
".................X.XX...X...XX.XXOX.XX.....O...O.XX..O.X...X....X.O.................o...............",
"..............X....X......O.O..X...........O.O.OOX..X.........O..................O..................",
"...............X.XX...........XX.X..O......O...XX.XX...........OX.X......X.......X.....o...X........",
"..............X..X+.X.X.......X...XX..X....XXX..XX...X..O....O...X.XXX...X..........................",
"..............X....X..X.....XXXOXX.XX...X.....X.O.XXOXX.X..O...X.OXO...........O.....X..............",
"...............XX.+X........OO...XXXX.X..X..X......X.O...X...XX.....O.XX...........XX..X............",
".............XX..X...+...XX....X.X.XX..X.XO.....X.XXOXX.....XOX.....O...XXX........XX......X..X.....",
"..............XX......XXXXXX...X..X...O.XXX.......XO..XO...XO....OOOX.XX.X......Xo.X.XX..X...X......",
"............Xo.XXX..+.....X....X.X...X...X...XX.XXXX.XX..X..X..X.XOX.XX...XXOO..oXXoXoXX..o.........",
"...........oXoXX..+.XXX..X..XX......X.X.X.X..X....X..XX.OXX.XO..XXOX.X.O..O.OO..OXXXX.XX.X.oX.......",
"...........X..X..XX..XX.XXX..........X..X.XX..X....XX..XXX..OXX.XX.X.OOO.XO.O.X.oOXoXXX..X..o.......",
"..........XX...............X....X............X.X.....X...XX.OO.OXO.XXX..X.XOOOoo.O.XXXXXX.....X.....",
"..........XoX.X.X..X.........X....+....X......XX.O..X....OXO..X..XXXXOXOXXO.X.XO....XX...X..X.......",
".............X.......X.X..X...X........XO.....O....X.X.O.X...O.X.XXXXX.X..OOOXO..XoX.o.X.......X....",
"..........XXXo..XX..X....X.....X....+...X..X.X.X..OX.XX...X..X.OO.O.OXX....OOO.Xoo.X.X.o.X.....X....",
"...............X...X....X..X.X.....+XX.X.O...X.O..OXO..O.OOO....X.XOXXX.OO.X.X.X.XX...X.............",
"...........X....X..X...X.........OX......OXXX.X....XXOX....O..XX.X.OXO.OOO.........X......XX.X......",
"..........X.....X....XX..+..X....+.X..X.....OX.X.XOX.OO.X.OOX.....X...XX..X.....X.XX..oXX...........",
"......X......X.X....XX.+...........+.O...O.X..XXX..O.O..XOOO...O..XXX.XX.O.......o..X...o.Xo........",
"XX.....X...o......X..X..X....X.+.X.XXX.+....XXXXXX.XX...XOOO..XX.XXXX.X.X.X......X.......o..........",
"...............X..X.X.X...X...+..+.+XX+X..X.XXOXXXX.X.XXO.....X.X.XXX..OX.X...o...X.o...o..X........",
"..........X.X....X........X.X...X..+..XX.+XX..XXOXXXXOX.XO.OOX.XX.XXXX...X......Oo.X..X.o......X....",
"...............X..XXXX..X.X..+......X..X.XXXXXXXXXXXXXO..X.OOXXXOXXXX.XXXXXX...X.X....X.oX..........",
".........X..X...X....XX..X.....+.X.........XXOOXXXXXXXOXOXO.XXXXXXX..OXOOOXOX.......X..XXXXX........",
"...............XXXXoXXXX.......X.X.XXX...XXXX.XXXXXXXXX.X..X...XXXXXO.X.O.XOXO...oo..o.XXo..o.......",
".......X...X.XX..XXX.XX...XX....+.X........XO.X.XXXXXOXXXX....XX..OX.XXXO.OO.....Xo...oXoo..........",
"..........X.XX.X...X.XX....X........X...........XXX.XX.X.XX.XX...XO..X.XOX.O.XX.o.oo.oXXX.oo........",
"............XX...XXX+X...................X...X.XXXXXX.XXX.X..X...XX..XOX.XOOOooXXo..oXXoXXXX........",
"...........XX.X..XXX..........XX....X.X........XX..OXXX.X....OXX..OX...OXO..........oX.XX..XX.......",
"..........X.X..X...XX..........X......X..XX...XX.XX.X..X.X.O..X...O.X.....O........X...X..XXXX......",
"..........XX.XX..X....X.X.........XX.XX.XX..XX..X.XX.XXXX...X.X.X.O.X.....O.o..O.XX.X..X..X....X....",
"..............XX.XX.....X........X..X..X.X..X..XXX.....X..XXX..X......O....Xoo....o..X.X.. XX.X.....",
".............XXX.XX..X.X..XX.X....X.X..X.XXXX.XXXOXXXX..X...........X......O...oX..XX.XX............",
"...........X...X.....X.X....X.XXX....X.X..XXX.X..X.OX...X....X...O.OO........oo.........X..X........",
".............XXXX.......O......X..X...XXXXXXXX..X.X..X.X.X........O.........O.X....oX....X.....X....",
".........X.X.X...XXX...X......X.X....XXXXXX.XX.XXXXX.......X.......O.......XoX.oX..oX......X........",
"............XXXXXXXX.X................XXXXXXXX.X.OX........XXX...X...X.X.O.X....X......X.oX.........",
"..............X.oX.XXX.o...........X.XX.XXXXXXXXX..XXXX..X..XX.X...O..O..O.oO....X..........X..X....",
"..............X.X.XXX........X...XXX.X.XX.X.XXX.X...X..XXX...O.X.X.X...O..X.......XXXX..............",
"..........XXXXXXX....o........X..O..X.XX..XXXXX.X.XOO...OO...XX.X..X.O...X..X.XXXX...........X......",
" .... ....XXXXX.XXXX..X...oo.....XX.....XX.+XXXOXO.XXXOXX..X.X.XO..O.OO.......XXXX....o.............",
".......X...XXX.XX..Xo....X..X..OX.....X.+XXXX.OOOO.XXOO.O.XXXXXOXXOXX.Xo..oXXX.X....X.X.............",
".........X..XX..XX.....X.o....X...X...OOXXOXOOXOO.O.X.OX.XXOXXXX.X..XOX...XXoX...XX....X.o..o.......",
"...........X..XXX...X.........X.....XXoXo.OXOOX..O..OOXoOX..XX.X...oXX..XXX.....XX...X..............",
"..........X.XXX.XXo.oXX..o..XXXoXXX.XXXXooXXXoo.XXXooXX.Xo.XX.X.X......X.X.......X..................",
"............X.X.X.....o....XXo.XXXXXXXXXX.o.XX.X.XXX.X.XOXXXXX..X.X........oX.XX....................",
".......X...X.XXXXX....X.....XXXXXXXXX.o.XX.o.X..XXoo.X.......XXX..X.....X.XX...X..X.X...............",
"........X....X.ooXXX....X..XXXX.XX.XXXX.XXX...XoXoXXo....oX.....oX..X....X..X.X.X..X..X.............",
"............XX..XXXXX..XXXX..XXX.oXXXX..XXX...XX.Xo.o..oX.....XXX.X......o.X..XX....................",
"...........X.XXo.X.XXXX.XXo.XXoXXX..XX.XXXoX.XXX...o...oXXo....X.........oX...X..X...X..o...........",
"............X.XX...oXXo.XX..XoX.oXXX.X.oXXXX.X.X..X......oX.X.......XX...X...oo.....X...............",
"..................XXXo.Xo.X..X..X.Xo.XX.XX.Xo...o.OXX....XX........o.X..X.X..o.o....................",
".............X....o...XX.XXXXo..XooXXXXoX.o...X........o.....X.X.....XXooXo.......X.o .......... ...",
"..........X.X.....oo.....ooXoooo.oXoXXo.XX....X......XXo.o.....XX.X...Xo....o.......................",
"...................ooo....oo. o..o.oooooXXX............oXX.....oX......o.........o..................",
"..........................o.o..o.. o.oooo.oo.......X.......XX.X.....................o.. ............",
"...........................o..... ............oo.o.....o...OX.oo..Ooo......o........................",
".............. .. ..................o  ..o................oo...oo.o.............. ..................",
"........ ......................o.....oo....o......o..o.o.o.o........................................",
"......................... ..........o o.............o...............................................",
"................................................o..oo........o......................................",
"......................................o...........o.................................................",
"..........................................O.........................................................",
"..................... ..............................................................................",
"............................................................. ......... ............................",
"...................................................................................................."
};
