/* XPM */
static char *result[] = {
/* columns rows colors chars-per-pixel */
"100 100 8 1 ",
"  c black",
". c #8F571F",
"X c #B86B1A",
"o c #A38DEB",
"O c #AF99F2",
"+ c #E6E4ED",
"@ c white",
"# c None",
/* pixels */
"####################################################################################################",
"####################################################################################################",
"####################################################################################################",
"####################################################################################################",
"####################################################################################################",
"###############################################           ##########################################",
"###########################################    XXXXXXXXXXX    ######################################",
"#########################################  XXXXXXXXXXXXXXXXXXX  ####################################",
"#######################################  XXXXXXXXXXXX.....XXXXXX  ##################################",
"#####################################  XXXXXXXXX         .....XXXX  ################################",
"#################################### XX.XXXX                 XXXXXXX ###############################",
"##################################  XX..XX                     XXXXX.  #############################",
"################################# XX...X                         XXX... ############################",
"################################ X...X                             XXX.. ###########################",
"############################### XX.XX                               XX... ##########################",
"############################## XXXXX                                 XXX.X #########################",
"############################# XXXXX                                   XXXXX ########################",
"############################# XXXX                                     XXXX ########################",
"############################ XXXX                                       XXXX #######################",
"########################### XXXX                                         XXXX ######################",
"########################### XXX                                           XX. ######################",
"########################## XXXX                                           XX.X #####################",
"########################## X.X                                             X.X #####################",
"########################## ..                    +++++++++                  .X #####################",
"######################### ..X                 ++++++@@@++++++               X.X ####################",
"######################### ..X                +@@@@@@@@@@@@@@@+              X.. ####################",
"######################### .X               ++@@@@@@@@@@@@@@@@@@+             XX ####################",
"######################## XXX              +@@@@@@@@@@@@@@@@@@@@@+            XXX ###################",
"######################## XX              @@@@@@@@@@@@@@@@@@@@@@@@+            XX ###################",
"######################## XX             +@o@@@@@@@@@@@@@@@@@@@@o@@+           XX ###################",
"######################## XX            +@@o@@@@@@@@@@@@@@@@@@@@oo@@+          XX ###################",
"######################## XX           +@@ooO@@@@@@@@@@@@@@@@@@@ooo@@+         X. ###################",
"######################## XX          +@@@ooO@@@@@@@@@@@@@@@@@@OOoo@@@+        X. ###################",
"######################## XX          +@@oooO@@@@@@@@@@@@@@@@@@OOOo@@@+        X. ###################",
"######################## X.         ++@@ooOO@@@@@@@@@@@@@@@@@@OOOo@@@++       X. ###################",
"######################## X.         +@@@oOOO@@@@@@@@@@@@@@@@@@OOOoo@@@+       XX ###################",
"######################## X.        ++@@ooOOO@@@@@@@@@@@@@@@@@@OOOOo@@@++      XX ###################",
"######################## X.        +@@@oOOOOO@@@@@@@@@@@@@@@@OOOOOo@@@++      XX ###################",
"######################## XX        +@@@oOOOOO@@@@@@@@@@@@@@@@OOOOOo@@@++      XX ###################",
"######################## XX        +@@@OOOOOO@@@@@@@@@@@@@@@@OOOOOo@@@++      XX ###################",
"######################## XX       ++@@@OOOOOO@@@@@@@@@@@@@@@@OOOOOo@@@+++     XX ###################",
"######################## XX       ++@@@OOOOOO@@@@@@@@@@@@@@@@OOOOOo@@@@++     XX ###################",
"######################## XX       ++@@@OOOOO@@@@@@@@@@@@@@@@@@OOOOO@@@@++     XX ###################",
"######################## XX       ++@@@@OOO@@@@@@@@@@@@@@@@@@@@OOO@@@@@++     XX ###################",
"######################## XX       +@@@@@@@@@@@@@@@@@@@@@@@@@@@@@@@@@@@@++     XX ###################",
"######################## XX       +@@@@       @@@@@@@@@@@@@@       @@@@++     XX ###################",
"######################## XX       +@@@         @@@@@@@@@@@@         @@@++     XX ###################",
"######################## XX       +@@@@       @@@@@@@@@@@@@@       @@@@++     .X ###################",
"######################## XX       +@@@@@@@@@@@@@@@@@@@@@@@@@@@@@@@@@@@@++     .X ###################",
"######################## XX       +@@@  @@@@@  @@@@@@@@@@@@  @@@@@  @@@++     .X ###################",
"######################## XX       +@@@@@     @@@@@@@@@@@@@@@@     @@@@@++     .X ###################",
"######################## XX       ++@@@@@@@@@@@@@@@@@@@@@@@@@@@@@@@@@@@++     .X ###################",
"######################## XX        +@@@@@@@@@@@@@@@@@@@@@@@@@@@@@@@@@@@+      XX ###################",
"######################## XX        +@@@@@@@@@@@@@@@@@@@@@@@@@@@@@@@@@@@+      XX ###################",
"######################## XX        +@@@@@@@@@@@@@@@@@@@@@@@@@@@@@@@@@@++      XX ###################",
"######################## XX        +@@@@@OOO@@@@@@@@@@@@@@@@@@@OOO@@@@++      XX ###################",
"######################## XX        +@@@@oOOOO@@@@@@@@@@@@@@@@@OOOOO@@@++      XX ###################",
"######################## X.        +@@@@oOOOOO@@@@@@@@@@@@@@@OOOOOo@@@++      .X ###################",
"######################## ..        +@@@@oOOOOO@@@@@@@@@@@@@@@OOOOOo@@@++      X. ###################",
"######################## .X        ++@@@oOOOOO@@@@@@@@@@@@@@@OOOOOo@@@++      X. ###################",
"######################## .X        ++@@@oOOOOO@@@@@@@@@@@@@@@OOOOOo@@@++      X. ###################",
"######################## .X         +@@@oOOOOO@@@@@@@@@@@@@@@OOOOOo@@@+       X. ###################",
"######################## .X         ++@@oOOOO@@@@@@@@@@@@@@@@@OOOoo@@++       X. ###################",
"######################## XX          +@@ooOOO@@@@@@@@@@@@@@@@@OOOo@@@+        XX ###################",
"######################## XX          +@@@oOOO@@@@@@@@@@@@@@@@@OOOo@@@+        XX ###################",
"######################## XX          +@@@oOOO@@@@@@@@@@@@@@@@@OOoo@@@+        XX ###################",
"######################## XX          ++@@oOOO@@@@@@@@@@@@@@@@@Ooo@@@@+        XX ###################",
"######################## XX           +@@ooo@@@@@@@@@@@@@@@@@@OoO@@@+         XX ###################",
"######################## XX           ++@@Oo@@@@@@@@@@@@@@@@@@@o@@@@+         XX ###################",
"######################## XX           ++@@@o@@@@@@@@@@@@@@@@@@@o@@@@+         XX ###################",
"######################## XX            +@@@@@@@@           @@@@@@@@+          XX ###################",
"######################## XX            ++@@@@@               @@@@@++          XX ###################",
"######################## XX             ++@@@                 @@@@+           XX ###################",
"######################## XX             +++@@@               @@@@@+           X. ###################",
"######################## XX              +++@@@@           @@@@+++            X. ###################",
"######################## XX               +++@@@@@@@@@@@@@@@@@+++             X. ###################",
"######################## XX                +++@@@@@@@@@@@@@@@+++              X. ###################",
"######################## XX                 +++@@@@@@@@@@@@@@++               X. ###################",
"######################## XX                  ++@@@@@@@@@@@@@++                XX ###################",
"######################## XX                   +++++@@@@@+++++                 XX ###################",
"######################## .X                     +++++++++++                   XX ###################",
"######################## .X                       +++++++                     XX ###################",
"######################## .X                                                   XX ###################",
"######################## .X                                                   .. ###################",
"######################## .X                                                   X. ###################",
"######################## .X                                                   .. ###################",
"######################## XX                                                   .X ###################",
"######################## XX                                                   XX ###################",
"######################## XX                                                   XX ###################",
"######################## XX                                                   XX ###################",
"######################## XX                                                   XX ###################",
"######################## XX                                                   XX ###################",
"######################## XX                                                   XX ###################",
"######################## XX                                                   X. ###################",
"######################## X.                                                   X. ###################",
"######################## X.                                                   X. ###################",
"######################## X.                                                   X. ###################",
"######################## X.                                                   X. ###################",
"######################## .X                                                   XX ###################",
"######################## .X                                                   XX ###################"
};
