/* XPM */
static char *result[] = {
/* columns rows colors chars-per-pixel */
"32 32 3 1 ",
"  c #5D1810",
". c #852217",
"X c #BF3222",
/* pixels */
"X.....XX....XXX...........XX..XX",
"X......  .......     .. ....X..X",
"X...       ..                 .X",
"X...                          ..",
"...                           ..",
"X..                           ..",
"..                            ..",
"..                            .X",
".                             .X",
"..                            ..",
"X.                            ..",
"X.                            ..",
"..                             X",
".                              .",
"..                             .",
"X                             ..",
"X                            ...",
"X.                           . .",
"..                             .",
"...                            .",
"..                             X",
"X                              X",
"X.                             X",
".                             . ",
".                             ..",
".                             .X",
".                             .X",
".                             ..",
"X                             .X",
"X..     .             .      ..X",
"X......  .  ..      . .. ......X",
"X... .......XX....XX.XXX.XXX..XX"
};
