/* XPM */
static char *result[] = {
/* columns rows colors chars-per-pixel */
"100 100 4 1 ",
"  c black",
". c #A8722F",
"X c #CC811F",
"o c None",
/* pixels */
"oooooooooooooooooooooooooooooooooooooooooooooooooooooooooooooooooooooooooooooooooooooooooooooooooooo",
"oooooooooooooooooooooooooooooooooooooooooooooooooooooooooooooooooooooooooooooooooooooooooooooooooooo",
"oooooooooooooooooooooooooooooooooooooooooooooooooooooooooooooooooooooooooooooooooooooooooooooooooooo",
"oooooooooooooooooooooooooooooooooooooooooooooooooooooooooooooooooooooooooooooooooooooooooooooooooooo",
"oooooooooooooooooooooooooooooooooooooooooooooooooooooooooooooooooooooooooooooooooooooooooooooooooooo",
"oooooooooooooooooooooooooooooooooooooooooooooooooooooooooooooooooooooooooooooooooooooooooooooooooooo",
"oooooooooooooooooooooooooooooooooooooooooooooooooooooooooooooooooooooooooooooooooooooooooooooooooooo",
"oooooooooooooooooooooooooooooooooooooooooooooooooooooooooooooooooooooooooooooooooooooooooooooooooooo",
"oooooooooooooooooooooooooooooooooooooooooooooooooooooooooooooooooooooooooooooooooooooooooooooooooooo",
"oooooooooooooooooooooooooooooooooooooooooooooooooooooooooooooooooooooooooooooooooooooooooooooooooooo",
"oooooooooooooooooooooooooooooooooooooooooooooooooooooooooooooooooooooooooooooooooooooooooooooooooooo",
"oooooooooooooooooooooooooooooooooooooooooooooooooooooooooooooooooooooooooooooooooooooooooooooooooooo",
"oooooooooooooooooooooooooooooooooooooooooooooooooooooooooooooooooooooooooooooooooooooooooooooooooooo",
"oooooooooooooooooooooooooooooooooooooooooooooooooooooooooooooooooooooooooooooooooooooooooooooooooooo",
"oooooooooooooooooooooooooooooooooooooooooooooooooooooooooooooooooooooooooooooooooooooooooooooooooooo",
"oooooooooooooooooooooooooooooooooooooooooooooooooooooooooooooooooooooooooooooooooooooooooooooooooooo",
"oooooooooooooooooooooooooooooooooooooooooooooooooooooooooooooooooooooooooooooooooooooooooooooooooooo",
"oooooooooooooooooooooooooooooooooooooooooooooooooooooooooooooooooooooooooooooooooooooooooooooooooooo",
"oooooooooooooooooooooooooooooooooooooooooooooooooooooooooooooooooooooooooooooooooooooooooooooooooooo",
"oooooooooooooooooooooooooooooooooooooooooooooooooooooooooooooooooooooooooooooooooooooooooooooooooooo",
"oooooooooooooooooooooooooooooooooooooooooooooooooooooooooooooooooooooooooooooooooooooooooooooooooooo",
"oooooooooooooooooooooooooooooooooooooooooooooooooooooooooooooooooooooooooooooooooooooooooooooooooooo",
"oooooooooooooooooooooooooooooooooooooooooooooooooooooooooooooooooooooooooooooooooooooooooooooooooooo",
"oooooooooooooooooooooooooooooooooooooooooooooooooooooooooooooooooooooooooooooooooooooooooooooooooooo",
"ooooooooooooooooooooooooooooooooooooooooooooooooooooooooooooooo   oooooooooooooooooooooooooooooooooo",
"oooooooooooooooooooooooooooooooooooooooooooooooooooooooooooooo ... ooooooooooooooooooooooooooooooooo",
"ooooooooooooooooooooooooooooooooooooooooooooooo  ooooooooooo  .... ooooooooooooooooooooooooooooooooo",
"ooooooooooooooooooooooooooooooooooooooooooooo    ooooooooo ....XX.. oooooooooooooooooooooooooooooooo",
"ooooooooooooooooooooooooooooooooooooooooooo    XX ooooooo ...XXXX.. oooooooooooooooooooooooooooooooo",
"ooooooooooooooooooooooooooooooooooooooooooo XXXXXX oooo ....XXXXX... ooooooooooooooooooooooooooooooo",
"oooooooooooooooooooooooooooooooooooooooooooo ..XXXX o  ..XXX XXXXX... oooooooooooooooooooooooooooooo",
"oooooooooooooooooooooooooooooooooooooooooooo .. XXX  ...XXX .XXXXX.... ooooooooooooooooooooooooooooo",
"oooooooooooooooooooooooooooooooooooooooooooo .. .XX ..XXX  .XXXXXXX... ooooooooooooooooooooooooooooo",
"ooooooooooooooooooooooooooooooooooooooooooooo ...XXXXXX  .XXXXXXXXXX.. ooooooooooooooooooooooooooooo",
"ooooooooooooooooooooooooooooooooooooooooooooo ...XXXXX ..XXXXXXXXXX... ooooooooooooooooooooooooooooo",
"oooooooooooooooooooooooooooooooooooooooooooooo .XXXXXXXXXXXXXXXXXX... oooooooooooooooooooooooooooooo",
"oooooooooooooooooooooooooooooooooooooooooooooo XXXXXXXXXXXXXXXXXXX... oooooooooooooooooooooooooooooo",
"ooooooooooooooooooooooooooooooooooooooooooooo XXXXXXXXXXXXXXXXXXX... ooooooooooooooooooooooooooooooo",
"oooooooooooooooooooooooooooooooooooooooooooo XXXXXXXXXXXXXXXXXXX... oooooooooooooooooooooooooooooooo",
"ooooooooooooooooooooooooooooooooooooooooooo XXXXX XXXXXXXXXXXXX... Xoooooooooooooooooooooooooooooooo",
"oooooooooooooooooooooooooooooooooooooooooo XXXXX .XXXXXXX XXXX.X.. ooooooooooooooooooooooooooooooooo",
"ooooooooooooooooooooooooooooooooooooooooo XXXXX .XXXXXXX .XXX.... oooooooooooooooooooooooooooooooooo",
"oooooooooooooooooooooooooooooooooooooooo XXXXX .XXXXXXX .XXXX... ooooooooooooooooooooooooooooooooooo",
"ooooooooooooooooooooooooooooooooooooooo XXXXX .XXXXXX  .XXXXX.. oooooooooooooooooooooooooooooooooooo",
"oooooooooooooooooooooooooooooooooooooo XXXXX .XXXXXX ..XXXX... ooooooooooooooooooooooooooooooooooooo",
"ooooooooooooooooooooooooooooooooooooo XXXXX .XXXXXX .XXXXX... oooooooooooooooooooooooooooooooooooooo",
"oooooooooooooooooooooooooooooooooooo XXXX  .XXXXXX .XXXXXX.. ooooooooooooooooooooooooooooooooooooooo",
"ooooooooooooooooooooooooooooooooooo XXX  ...XXXXX .XXXXXX.X oooooooooooooooooooooooooooooooooooooooo",
"oooooooooooooooooooooooooooooooooo XXXX..XXXXXXX .XXXXXXX..ooooooooooooooooooooooooooooooooooooooooo",
"ooooooooooooooooooooooooooooooooo XXXXXXXXXXXXXXXXXXXXXXX oooooooooooooooooooooooooooooooooooooooooo",
"oooooooooooooooooooooooooooooooo XXXXXXXXXXXXXXXXXXXXXXX ooooooooooooooooooooooooooooooooooooooooooo",
"oooooooooooooooooooooooooooooooo XXXXXXXXXXXXXXXXXXXXXX oooooooooooooooooooooooooooooooooooooooooooo",
"ooooooooooooooooooooooooooooooooo XXXXXXXXXXXXXXXX XXX ooooooooooooooooooooooooooooooooooooooooooooo",
"ooooooooooooooooooooooooooooooooo XXXXXXXXXXXXXXX .XX oooooooooooooooooooooooooooooooooooooooooooooo",
"ooooooooooooooooooooooooooooooooo  XXXXXXXXXXXXX .XX ooooooooooooooooooooooooooooooooooooooooooooooo",
"ooooooooooooooooooooooooooooooooo  .XXXXXXXXXXX .XX oooooooooooooooooooooooooooooooooooooooooooooooo",
"ooooooooooooooooooooooooooooooooo . .XXXXXXXXX .XXX oooooooooooooooooooooooooooooooooooooooooooooooo",
"oooooooooooooooooooooooooooooooooo . ..XXXXXX .XXX ooooooooooooooooooooooooooooooooooooooooooooooooo",
"oooooooooooooooooooooooooooooooooo .. ..XXXXXXXXX oooooooooooooooooooooooooooooooooooooooooooooooooo",
"ooooooooooooooooooooooooooooooooooo .. .XXXXXXXXX oooooooooooooooooooooooooooooooooooooooooooooooooo",
"ooooooooooooooooooooooooooooooooooo .. .XXXXXXXX ooooooooooooooooooooooooooooooooooooooooooooooooooo",
"oooooooooooooooooooooooooooooooooooo .. .XXXXXX oooooooooooooooooooooooooooooooooooooooooooooooooooo",
"ooooooooooooooooooooooooooooooooooooo . .XXXXX ooooooooooooooooooooooooooooooooooooooooooooooooooooo",
"oooooooooooooooooooooooooooooooooooooo . XXXX oooooooooooooooooooooooooooooooooooooooooooooooooooooo",
"ooooooooooooooooooooooooooooooooooooooo . X  ooooooooooooooooooooooooooooooooooooooooooooooooooooooo",
"oooooooooooooooooooooooooooooooooooooooo    oooooooooooooooooooooooooooooooooooooooooooooooooooooooo",
"ooooooooooooooooooooooooooooooooooooooooo  ooooooooooooooooooooooooooooooooooooooooooooooooooooooooo",
"oooooooooooooooooooooooooooooooooooooooooooooooooooooooooooooooooooooooooooooooooooooooooooooooooooo",
"oooooooooooooooooooooooooooooooooooooooooooooooooooooooooooooooooooooooooooooooooooooooooooooooooooo",
"oooooooooooooooooooooooooooooooooooooooooooooooooooooooooooooooooooooooooooooooooooooooooooooooooooo",
"oooooooooooooooooooooooooooooooooooooooooooooooooooooooooooooooooooooooooooooooooooooooooooooooooooo",
"oooooooooooooooooooooooooooooooooooooooooooooooooooooooooooooooooooooooooooooooooooooooooooooooooooo",
"oooooooooooooooooooooooooooooooooooooooooooooooooooooooooooooooooooooooooooooooooooooooooooooooooooo",
"oooooooooooooooooooooooooooooooooooooooooooooooooooooooooooooooooooooooooooooooooooooooooooooooooooo",
"oooooooooooooooooooooooooooooooooooooooooooooooooooooooooooooooooooooooooooooooooooooooooooooooooooo",
"oooooooooooooooooooooooooooooooooooooooooooooooooooooooooooooooooooooooooooooooooooooooooooooooooooo",
"oooooooooooooooooooooooooooooooooooooooooooooooooooooooooooooooooooooooooooooooooooooooooooooooooooo",
"oooooooooooooooooooooooooooooooooooooooooooooooooooooooooooooooooooooooooooooooooooooooooooooooooooo",
"oooooooooooooooooooooooooooooooooooooooooooooooooooooooooooooooooooooooooooooooooooooooooooooooooooo",
"oooooooooooooooooooooooooooooooooooooooooooooooooooooooooooooooooooooooooooooooooooooooooooooooooooo",
"oooooooooooooooooooooooooooooooooooooooooooooooooooooooooooooooooooooooooooooooooooooooooooooooooooo",
"oooooooooooooooooooooooooooooooooooooooooooooooooooooooooooooooooooooooooooooooooooooooooooooooooooo",
"oooooooooooooooooooooooooooooooooooooooooooooooooooooooooooooooooooooooooooooooooooooooooooooooooooo",
"oooooooooooooooooooooooooooooooooooooooooooooooooooooooooooooooooooooooooooooooooooooooooooooooooooo",
"oooooooooooooooooooooooooooooooooooooooooooooooooooooooooooooooooooooooooooooooooooooooooooooooooooo",
"oooooooooooooooooooooooooooooooooooooooooooooooooooooooooooooooooooooooooooooooooooooooooooooooooooo",
"oooooooooooooooooooooooooooooooooooooooooooooooooooooooooooooooooooooooooooooooooooooooooooooooooooo",
"oooooooooooooooooooooooooooooooooooooooooooooooooooooooooooooooooooooooooooooooooooooooooooooooooooo",
"oooooooooooooooooooooooooooooooooooooooooooooooooooooooooooooooooooooooooooooooooooooooooooooooooooo",
"oooooooooooooooooooooooooooooooooooooooooooooooooooooooooooooooooooooooooooooooooooooooooooooooooooo",
"oooooooooooooooooooooooooooooooooooooooooooooooooooooooooooooooooooooooooooooooooooooooooooooooooooo",
"oooooooooooooooooooooooooooooooooooooooooooooooooooooooooooooooooooooooooooooooooooooooooooooooooooo",
"oooooooooooooooooooooooooooooooooooooooooooooooooooooooooooooooooooooooooooooooooooooooooooooooooooo",
"oooooooooooooooooooooooooooooooooooooooooooooooooooooooooooooooooooooooooooooooooooooooooooooooooooo",
"oooooooooooooooooooooooooooooooooooooooooooooooooooooooooooooooooooooooooooooooooooooooooooooooooooo",
"oooooooooooooooooooooooooooooooooooooooooooooooooooooooooooooooooooooooooooooooooooooooooooooooooooo",
"oooooooooooooooooooooooooooooooooooooooooooooooooooooooooooooooooooooooooooooooooooooooooooooooooooo",
"oooooooooooooooooooooooooooooooooooooooooooooooooooooooooooooooooooooooooooooooooooooooooooooooooooo",
"oooooooooooooooooooooooooooooooooooooooooooooooooooooooooooooooooooooooooooooooooooooooooooooooooooo",
"oooooooooooooooooooooooooooooooooooooooooooooooooooooooooooooooooooooooooooooooooooooooooooooooooooo"
};
