/* XPM */
static char *result[] = {
/* columns rows colors chars-per-pixel */
"32 32 6 1 ",
"  c #B32C1D",
". c #992E20",
"X c #C72918",
"o c #DB422E",
"O c #EB6657",
"+ c None",
/* pixels */
"++++++++++++++++++++++++++++++++",
"++++++++++++++++++++++++++++++++",
"++++++++++++++++++++++++++++++++",
"++++++++++++++++++++++++++++++++",
"++++++++++++++.....+++++++++++++",
"++++++++++++..OOOOO..+++++++++++",
"++++++++++..OOOOOOOOO..+++++++++",
"+++++++++.OOOOOOOOOOOOO.++++++++",
"+++++++++.OOOO     OOOO.++++++++",
"++++++++.OOO  XXXXX  OOO.+++++++",
"+++++++.OOO XXoooooXX OOO.++++++",
"+++++++.OO XoooooooooX OO.++++++",
"+++++++.O XoooooooooooX O.++++++",
"++++++.OO XoooooooooooX OO.+++++",
"++++++.O XoooooooooooooX O.+++++",
"++++++.O XoooooooooooooX O.+++++",
"++++++.O XoooooooooooooX O.+++++",
"++++++.O XoooooooooooooX O.+++++",
"++++++.O XoooooooooooooX O.+++++",
"++++++.OO XooooooooooXX OO.+++++",
"+++++++.O XoooooooooXXX O.++++++",
"+++++++.OO XoooooooXXX OO.++++++",
"+++++++.OOO XXooooXXX OOO.++++++",
"++++++++.OOO  XXXXX  OOO.+++++++",
"+++++++++.OOOO     OOOO.++++++++",
"+++++++++.OOOOOOOOOOOOO.++++++++",
"++++++++++..OOOOOOOOO..+++++++++",
"++++++++++++..OOOOO..+++++++++++",
"++++++++++++++.....+++++++++++++",
"++++++++++++++++++++++++++++++++",
"++++++++++++++++++++++++++++++++",
"++++++++++++++++++++++++++++++++"
};
