/* XPM */
static char *result[] = {
/* columns rows colors chars-per-pixel */
"32 32 7 1 ",
"  c black",
". c #330E09",
"X c #4A1810",
"o c #A82A14",
"O c #BD2B15",
"+ c #C73B22",
"@ c #CF4125",
/* pixels */
"+@@@+@@++@@@@@@@@@+@@@@@@@++++@@",
"+@+@@+++@+@++@+++@@@@@+@@@+@@+@@",
"+@+@@++@++@@@++@@+@+@@@@+@@@++@@",
"@++@@+@+@+@++       @@++@++@@@+@",
"@@@+@@+@@++  .......  @@@@++++@@",
"@+@@@@+++  ..XXXXXXX..  +@++@@+@",
"@@@@@+@@ ..XX@+@@@@+XX.. @@+@@+@",
"+@@@@@@ ..X@@@ooooo@+@X.. @@+@++",
"@@+@@@ ..X@@ooOOOOOoo+@X.. @@+@@",
"@@@@@@ .X@+oOO@@@@+OOo+@X. @@@@@",
"@@+@@ .X@@oO@@@@+@@@+Oo++X. @@@@",
"@@@@@ .X+oO+@@@@@@@+@+Oo@X. @+@+",
"@@@@ .X++oO+++@@@@@+@+Oo@@X. @@+",
"@@@@ .X+oO@++++@@@+@@+@Oo+X. @+@",
"@@@@ .X@oO++++++@@@@++@Oo@X. +++",
"@@@@ .X+oO+++++++@@+@@@Oo+X. +@+",
"@@@+ .X+oO++++@++@@@@@+Oo+X. +++",
"+@@@ .X+oO+++++++@@@@@@Oo+X. @@+",
"+@@@ .X@+oO@@@+++@+@@@Oo++X. ++@",
"+@@@@ .X@oO++@@@@@@+@+Oo+X. ++++",
"+@@@+ .X++oO+++@++@@@Oo@@X. ++@+",
"+@@++@ .X++oOO++@+@OOo++X. +++++",
"@++++@ ..X@+ooOOOOOoo++X.. ++@+@",
"++++++@ ..X+++ooooo+++X.. @@+++@",
"++@+@++@ ..XX+@++++@XX.. @@++++@",
"+++++@++@  ..XXXXXXX..  +@++@@@@",
"++++++@+@++  .......  @@++@@@+@@",
"++@+++++++++@       +@++++@++@++",
"+@@+@++++++++++++++@+@@++++++++@",
"+++++@++++++++++@++++@++++@+++@+",
"++++++@+++++@++++@++@+++++@+@++@",
"++++@@@+@@++++@++@++++++++++++++"
};
