/* XPM */
static char *b2eca9faf7b7487df9483035a67ed9bas9uRMs7KJcwh6DaR[] = {
/* columns rows colors chars-per-pixel */
"100 100 5 1 ",
"  c None",
". c black",
"X c #FF5203",
"o c #F2D45A",
"O c white",
/* pixels */
"                                                                                                    ",
"                                                                                                    ",
"                                                                                                    ",
"                                                                                                    ",
"                                                                                                    ",
"                                                                                                    ",
"                                                                                                    ",
"                                                                                                    ",
"                                                                                                    ",
"                                                                                                    ",
"                                                                                                    ",
"                                                                                                    ",
"                                                                                                    ",
"                                                                                                    ",
"                                                                                                    ",
"                                                                                                    ",
"                                                                                                    ",
"                                                                                                    ",
"                                         ....                                                       ",
"                                          .XX.                                                      ",
"                                           .XX.  .        .                                         ",
"                              .            ...   .....     .                                        ",
"                              ..                  .XXX..   ..                                       ",
"                               ..   .........      .XXXX.  .X.                                      ",
"                               ....   ..XXXXX...    .XXXX...XX.                                     ",
"                                .X.     .XXXXXXX....XXXXXXX.XXX.                                    ",
"                          ....   ..    .XXXXXXXXXXXXXXXXXXXXXXXX.                                   ",
"                        ..XXXX..      .XXXXXXXXXXXXXXXXXooooXXXXX.                                  ",
"                       ....XXXXX..  ..XXXXXXXXXoooooXXXoooooXXXXXX.                                 ",
"                           .XXXXXX..XXXXXXXXXooooooooXXoooooXXXXXX.                                 ",
"                            .XXXXXXXXXXXXXXXooooooooooooooooooXXXX.                                 ",
"                             .XXXXXXXXXXXXoooooooooooooooooooooXX..                                 ",
"                        ..    .XXXXXXXooXoooooooooooooooooooooooX..                                 ",
"                       .X..   .XXXooooooooooooooooooooooooooooooXX.                                 ",
"                       .XXX...oooooooooooooooooooooooooooooooooooXX.                                ",
"                       .XXXXXXXooooooooooooooooooooooooooooooooooXX.                                ",
"                       .XXXXXXooooooooooooooooooooooooooooooooooooXX.                               ",
"                        .XXXXXooooooooooooooooooooooooooooooooooooXX.                               ",
"                        .XXXoooooooooooooooooooooooooooooooooooooooX.                               ",
"                         .XXXooooooooooooooooooooooooooooooo...ooooXX.                              ",
"                         .XXXooooooooooooooooooooooooooooo..OOO..oooX.                              ",
"                         .XXXXoooooooooooooooooooooooooooo.OOOOO.oooX.                              ",
"                         .XXXXooooooooooooooooooooooooooo.OOOO..O.ooX.                              ",
"                         .XXXXooooooooooooooooooooooooooo.OOOO..O.ooX.                              ",
"                         .XXXXooooooooooooooooooooooooooo.OOOOOOO.ooX.                              ",
"                         .XXXXXooooooooooooooooooooooooooo.OOOOO.oooX.                              ",
"                          .XXXXooooooooooooooooooooooooooo..OOO..oooX.                              ",
"                          .XXXXooooooooooooooooooooooooooooo...oooooX.                              ",
"                          .XXXXoooooooooooooooooooooooooooooooooooooX.                              ",
"                          .XXXXoooooooooooooooooooooooooooooooooooooX.                              ",
"                          ..XXXXooooooooooooooooooooooooooooooooooooX.                              ",
"                          ..XXXXoooooooooooooooooooooooooooooooooooXX.                              ",
"                           .XXXXoooooooooooooooooooooooooooooooooooXX.                              ",
"                           .XXXXoooooooooooooooooooooooooooooooooooXX.                              ",
"                           ..XXXoooooooooooooooooooooooooooooooooo....                              ",
"                           ..XXXooooooooooooooooooooooooooooooooo.XXX.                              ",
"                            .XXXoooooooooooooooooooooooooooooooo.XXXX.                              ",
"                            .XXXXooooooooooooooooooooooooooooooo.XXX.                               ",
"                            ..XXXoooooooooooooooooooooooooooooo.XXXX.                               ",
"                             .XXXXooooooooooooooooooooooooooooo.XXXX.                               ",
"                             .XXXXoooooooooooooooooooooooooooooo.XX.                                ",
"                             ..XXXooooooooooooooooooooooooooooooo...                                ",
"                              ..XXoooooooooooooooooooooooooooooooXX.                                ",
"                               .XXoooooooooooooooooooooooooooooooXX.                                ",
"                                .XXoooooooooooooooooooooooooooooXX.                                 ",
"                                 .XXooooooooooooooooooooooooooooX.                                  ",
"                                  .XXXoooooooooooooooooooooooooX.                                   ",
"                                   .XXXooooooooooooooooooooooXX.                                    ",
"                                    .XXXXooooooooooooooooXXXXX.                                     ",
"                                     ..XXXXXXXXXooooXXXXXXXX..                                      ",
"                                       ..XXXXXXXXXXXXXXXXX..                                        ",
"                                         ....XXXXXXXXX....                                          ",
"                                             .........                                              ",
"                                                                                                    ",
"                                                                                                    ",
"                                                                                                    ",
"                                                                                                    ",
"                                                                                                    ",
"                                                                                                    ",
"                                                                                                    ",
"                                                                                                    ",
"                                                                                                    ",
"                                                                                                    ",
"                                                                                                    ",
"                                                                                                    ",
"                                                                                                    ",
"                                                                                                    ",
"                                                                                                    ",
"                                                                                                    ",
"                                                                                                    ",
"                                                                                                    ",
"                                                                                                    ",
"                                                                                                    ",
"                                                                                                    ",
"                                                                                                    ",
"                                                                                                    ",
"                                                                                                    ",
"                                                                                                    ",
"                                                                                                    ",
"                                                                                                    "
};
