/* XPM */
static char *_575d87925484d80925b295c53a05acb4CfsiXYoyzBBXIAd[] = {
/* columns rows colors chars-per-pixel */
"100 100 4 1 ",
"  c None",
". c black",
"X c #FF5203",
"o c #F2D45A",
/* pixels */
"                                                                                                    ",
"                                                                                                    ",
"                                                                                                    ",
"                                                                                                    ",
"                                                                                                    ",
"                                                                                                    ",
"                                                                                                    ",
"                                                                                                    ",
"                                                                                                    ",
"                                                                                                    ",
"                                                                                                    ",
"                                                                                                    ",
"                                                                                                    ",
"                                                                                                    ",
"                                                                                                    ",
"                                                                                                    ",
"                                                                                                    ",
"                                                                                                    ",
"                                           .         .                                              ",
"                                          .X.       ...                                             ",
"                                   .      .XX.      .XX.                                            ",
"                                  .X..   .XXXX.    .XXXX.                                           ",
"                                 .XX.    .XXXXX..  .XXXXX.           ..                             ",
"                                 ...    .XXXXXXXX..XXXXXXX.         .X.                             ",
"                                  .     .XXXXXXXXX.XXXXXXXX.       .XX.                             ",
"                                        .XXXXXXXXXXXXXXXXXXX..    .XXX.   ..                        ",
"                               ..      .XXXXXXXXXXXXXXooXXXXXX....XXXX.  .XX.                       ",
"                              .XX.    .XXXXXXXXXXXXXoooooXXXXXXXXXXXXX.   .XX.                      ",
"                             .XXXX.  .XXXXXXXXXXXXXooooooooXXXXXXXXXXX.   .XXX.                     ",
"                           ..XXXXXX..XXXXXXXoXXXXoooooooooooXXXXXXXXXX.   .XXXX.                    ",
"                           .XXXXXXXXXXXXXXXXoooXoooooooooooooXXXXoXXXX..   .X..                     ",
"                          ..XXXXXXXXXXXXXXooooooooooooooooooooXXooXXXXX.    .                       ",
"                         ..XXXXXXXXXXXXXXooooooooooooooooooooooooooXXXXX.                           ",
"                        ..XXXXXXXoXoXXXXoooooooooooooooooooooooooooXXXXXX....                       ",
"                        .XXXXXXoooooXXXoooooooooooooooooooooooooooXXXXXXXXXXX.                      ",
"                        .XXXXXXoooooXXXoooooooooooooooooooooooooooXXXXXXXXXXXX.                     ",
"                        .XXXXXXooooooooooooooooooooooooooooooooooooXXXXXXXXXX.                      ",
"                        ..XXXXXooooooooooooooooooooooooooooooooooooXXoXXXXXX.                       ",
"                        ..XXXXXoooooooooooooooooooooooooooooooooooooooooXXXX.                       ",
"                     .. .XXXXXoooooooooooooooooooooooooooooooooooooooooXXXX.                        ",
"                     .X..XXXXXooooooooooooooooooooooooooooooooooooooooXXXX.                         ",
"                     .XX.XXXXXoooooooooooooooooooooooooooooooooooooooXXXX.                          ",
"                    ..XXX.XXXXXooooooooooooooooooooooooooooooooooooooXXX..                          ",
"                    .XXXX.XXXXXooooooooooooooooooooooooooooooooooooooXXX..                          ",
"                     .XXXXXXXXoooooooooooooooooooooooooooooooooooooooXXX.                           ",
"                     ..XXXXXXooooooooooooooooooooooooooooooooooooooooXXX.                           ",
"                      ..XXXXoooooooooooooooooooooooooooooooooooooooooXX.                            ",
"                       ..XXXoooooooooooooooooooooooooooooooooooooooooXX.                            ",
"                        ..XXXooooooooooooooooooooooooooooooooooooooooXX.                            ",
"                         ..XXXoooooooooooooooooooooooooooooooooooooooXX.                            ",
"                          ..XXoooooooooooooooooooooooooooooooooooooooXX.                            ",
"                          ..XXXooooooooooooooooooooooooooooooooooooooXX.                            ",
"                           .XXXooooooooooooooooooooooooooooooooooooooXX.                            ",
"                           .XXXooooooooooooooooooooooooooooooooooooooXX.                            ",
"                           ..XXoooooooooooooooooooooooooooooooooooooXXX.                            ",
"                           ..XXoooooooooooooooooooooooooooooooooooooXXX.                            ",
"                            .XXoooooooooooooooooooooooooooooooooooooXXX.                            ",
"                            .XXooooooooooooooooooooooooooooooooooooXXX.                             ",
"                            ..XXoooooooooooooooooooooooooooooooooooXX..                             ",
"                             .XXooooooooooooooooooooooooooooooooooXXX.                              ",
"                             .XXooooooooooooooooooooooooooooooooooXXX.                              ",
"                             ..XXooooooooooooooooooooooooooooooooXXX.                               ",
"                              ..XXoooooooooooooooooooooooooooooooXX.                                ",
"                               .XXoooooooooooooooooooooooooooooooXX.                                ",
"                                .XXoooooooooooooooooooooooooooooXX.                                 ",
"                                 .XXooooooooooooooooooooooooooooX.                                  ",
"                                  .XXXoooooooooooooooooooooooooX.                                   ",
"                                   .XXXooooooooooooooooooooooXX.                                    ",
"                                    .XXXXooooooooooooooooXXXXX.                                     ",
"                                     ..XXXXXXXXXXXXXXXXXXXXX..                                      ",
"                                       ..XXXXXXXXXXXXXXXXX..                                        ",
"                                         ....XXXXXXXXX....                                          ",
"                                             .........                                              ",
"                                                                                                    ",
"                                                                                                    ",
"                                                                                                    ",
"                                                                                                    ",
"                                                                                                    ",
"                                                                                                    ",
"                                                                                                    ",
"                                                                                                    ",
"                                                                                                    ",
"                                                                                                    ",
"                                                                                                    ",
"                                                                                                    ",
"                                                                                                    ",
"                                                                                                    ",
"                                                                                                    ",
"                                                                                                    ",
"                                                                                                    ",
"                                                                                                    ",
"                                                                                                    ",
"                                                                                                    ",
"                                                                                                    ",
"                                                                                                    ",
"                                                                                                    ",
"                                                                                                    ",
"                                                                                                    ",
"                                                                                                    ",
"                                                                                                    "
};
