/* XPM */
static char *_fed6f19223641e1cf340d35c9a759c5FDH4eRl3s2hF7KL6[] = {
/* columns rows colors chars-per-pixel */
"100 100 4 1 ",
"  c None",
". c black",
"X c #FF5203",
"o c #F2D45A",
/* pixels */
"                                                                                                    ",
"                                                                                                    ",
"                                                                                                    ",
"                                                                                                    ",
"                                                                                                    ",
"                                                                                                    ",
"                                                                                                    ",
"                                                                                                    ",
"                                                                                                    ",
"                                                                                                    ",
"                                                                                                    ",
"                                                                                                    ",
"                                                                                                    ",
"                                                                                                    ",
"                                                                                                    ",
"                                            ..         ..                                           ",
"                                           .XX.       .X.                                           ",
"                                           .XXX.    ..XX.                                           ",
"                                           .XXXX.  .XXXX.                                           ",
"                                       .   .XXXX.  .XXXX.                                           ",
"                                     ..    .XXXX...XXXXXX.                                          ",
"                                   ..X.    .XXXXX.XXXXXXXX                                          ",
"                                  .XXXX   .XXXXX.XXXoXXXXX.                                         ",
"                                  .XXXX. .XXXXXXXXXooooXXX.                                         ",
"                                 .XXXXX. XXXXXXXXooooooXXX.      .. ..                              ",
"                                 .XXXXX.XXXXXXXoooooooooXX..    ...  ..                             ",
"                                .XXXXXXX.XXXXXoooooooooooX......XX..  .                             ",
"                             .  .XXXXXXXXXXXXooooooooooooXXXX..XXXX.                                ",
"                            ..  .XXXXXXXXXXooooooooooooooXXXXXXXXXXX.                               ",
"                            .. .XXXoXXXXXXXooooooooooooooXXoXXXXoXXX.                               ",
"                            .X.XXXoooXXoXXooooooooooooooooXoooooooXX..                              ",
"                           .XXXXXXoooXooooooooooooooooooooooooooooXXX.                              ",
"                           .XXXXXXooooooooooooooooooooooooooooooooXXXX.                             ",
"                          .XXXXXXoooooooooooooooooooooooooooooooooXXXX.                             ",
"                          .XXXXXXoooooooooooooooooooooooooooooooooXXXX..                            ",
"                          XXXXooooooooooooooooooooooooooooooooooooooXXX.                            ",
"                         .XXXXoooooooooooooooooooooooooooooooooooooooXX.                            ",
"                         .XXXooooooooooooooooooooooooooooooooooooooooXX.                            ",
"                         .XXXooooooooooooooooooooooooooooooooooooooooXX.                            ",
"                        .XXXoooooooooooooooooooooooooooooooooooooooooXX.                            ",
"                        .XXXoooooooooooooooooooooooooooooooooooooooooXX.                            ",
"                        .XXXoooooooooooooooooooooooooooooooooooooooooXX.                            ",
"                         .XXoooooooooooooooooooooooooooooooooooooooooXX.                            ",
"                         .XXXooooooooooooooooooooooooooooooooooooooooXX.                            ",
"                         .XXXooooooooooooooooooooooooooooooooooooooooXX.                            ",
"                         .XXXooooooooooooooooooooooooooooooooooooooooXX.                            ",
"                         .XXXooooooooooooooooooooooooooooooooooooooooXX.                            ",
"                         .XXXXoooooooooooooooooooooooooooooooooooooooXX.                            ",
"                         .XXXXoooooooooooooooooooooooooooooooooooooooXX.                            ",
"                          .XXXoooooooooooooooooooooooooooooooooooooooX..                            ",
"                          ..XXoooooooooooooooooooooooooooooooooooooooX..                            ",
"                          ..XXoooooooooooooooooooooooooooooooooooooooX..                            ",
"                           ..XoooooooooooooooooooooooooooooooooooooooX..                            ",
"                           ..XXooooooooooooooooooooooooooooooooooooooX..                            ",
"                           ..XXoooooooooooooooooooooooooooooooooooooXX..                            ",
"                           ..XXoooooooooooooooooooooooooooooooooooooXX..                            ",
"                            .XXoooooooooooooooooooooooooooooooooooooXX..                            ",
"                            .XXooooooooooooooooooooooooooooooooooooXXX.                             ",
"                            ..XXoooooooooooooooooooooooooooooooooooXX..                             ",
"                             .XXooooooooooooooooooooooooooooooooooXXX.                              ",
"                             .XXooooooooooooooooooooooooooooooooooXXX.                              ",
"                             ..XXooooooooooooooooooooooooooooooooXXX.                               ",
"                              ..XXoooooooooooooooooooooooooooooooXX.                                ",
"                               .XXoooooooooooooooooooooooooooooooXX.                                ",
"                                .XXoooooooooooooooooooooooooooooXX.                                 ",
"                                 .XXooooooooooooooooooooooooooooX.                                  ",
"                                  .XXXoooooooooooooooooooooooooX.                                   ",
"                                   .XXXooooooooooooooooooooooXX.                                    ",
"                                    .XXXXooooooooooooooooXXXXX.                                     ",
"                                     ..XXXXXXXXXXXXXXXXXXXXX..                                      ",
"                                       ..XXXXXXXXXXXXXXXXX..                                        ",
"                                         ....XXXXXXXXX....                                          ",
"                                             .........                                              ",
"                                                                                                    ",
"                                                                                                    ",
"                                                                                                    ",
"                                                                                                    ",
"                                                                                                    ",
"                                                                                                    ",
"                                                                                                    ",
"                                                                                                    ",
"                                                                                                    ",
"                                                                                                    ",
"                                                                                                    ",
"                                                                                                    ",
"                                                                                                    ",
"                                                                                                    ",
"                                                                                                    ",
"                                                                                                    ",
"                                                                                                    ",
"                                                                                                    ",
"                                                                                                    ",
"                                                                                                    ",
"                                                                                                    ",
"                                                                                                    ",
"                                                                                                    ",
"                                                                                                    ",
"                                                                                                    ",
"                                                                                                    ",
"                                                                                                    "
};
