/* XPM */
static char *_43240203d3c438ed2cec5c1f1159758VSGHzY7qLfRP6Syw[] = {
/* columns rows colors chars-per-pixel */
"100 100 5 1 ",
"  c None",
". c black",
"X c #FF5203",
"o c #F2D45A",
"O c white",
/* pixels */
"                                                                                                    ",
"                                                                                                    ",
"                                                                                                    ",
"                                                                                                    ",
"                                                                                                    ",
"                                                                                                    ",
"                                                                                                    ",
"                                                                                                    ",
"                                                                                                    ",
"                                                                                                    ",
"                                                                                                    ",
"                                                                                                    ",
"                                                                                                    ",
"                                                                                                    ",
"                                                                                                    ",
"                                            .                                                       ",
"                                            ...                                                     ",
"                                           ..X..                                                    ",
"                                           .XXXX.                                                   ",
"                               ....       ..XXXXX..                                                 ",
"                              ...XX.      .XXXXXXX.       ..                                        ",
"                                ..XX.    ..XXXXXXXX.      ...                                       ",
"                                 .....   .XXXXXXXXXX.     .XX.                                      ",
"                                        ..XXXXXXXXXXX.   .XXX..                                     ",
"                                  ....  .XXXXXXXXoXXXX.. .XXXX..                                    ",
"                                  .X.. ..XXXXXoooooXXXXX..XXXX...                                   ",
"                           .      ..   XXXXXXoooooooXXXXXXXXXXXXX.                                  ",
"                          .X.        .XXXXXXoooooooooXXXXXXXXXXXX..                                 ",
"                          .XX.      ..XXXXXooooooooooXXXXXXXoXXXXX.  ...                            ",
"                          .XXX.   ..XXXXXXXoooooooooooXoXXXoXoXXXX. ..X..                           ",
"                          .X..    .XXXXoXXooooooooooooooXXXooooXXX..XXXX.                           ",
"                          ..     .XXXXooooooooooooooooooXXoooooXXXXXXXXX.                           ",
"                          .   ...XXXXooooooooooooooooooooXoooooXXXXXXXXX.                           ",
"                       .      .XXXXXXooooooooooooooooooooooooooXXXXXXXXXX.                          ",
"                      ..  .....XXXXXoooooooooooooooooooooooooooXXXXXoXXX..                          ",
"                      ....XXXXXXXXXXooooooooooooooooooooooooooooXXooooXX.                           ",
"                      ..XXXXXXXXXXXoooooooooooooooooooooooooooooXoooooXX.                           ",
"                      .XXXXXXXXXXXooooooooooooooooooooooooooooooooooooXX.                           ",
"                      .XXXXXXXooXoooooooooooooooooooooooooooooooooooooXX.                           ",
"                      .XXXXXXoooooooooooooooooooooooooooooooooooooooooXX.                           ",
"                      .XXXXXXooooooooooooooooooooooooooooooooooooooooXXX.                           ",
"                       .XXXXXooooooooooooooooooooooooooooooooooooooooXX..                           ",
"                       .XXXXXooooooooooooooooooooooooooooooooooooooooXX.                            ",
"                       .XXXXXooooooooooooooooooooooooooooooooooooooooXX.                            ",
"                        .XXXXooooooooooooooooooooooooooooooooooooooooXX.                            ",
"                        .XXXXooooooooo...oooooooooooooooooo...oooooooXX.                            ",
"                        ..XXXooooooo..OOO..oooooooooooooo..OOO..oooooXX.                            ",
"                         .XXXXoooooo.OOOOO.oooooooooooooo.OOOOO.oooooXX.                            ",
"                         ..XXXooooo.OOOOOOO.oooooooooooo.OOOOOOO.ooooXX.                            ",
"                          .XXXooooo.OOO..OO.oooooooooooo.OO..OOO.ooooX..                            ",
"                          ..XXooooo.OOO..OO.oooooooooooo.OO..OOO.ooooX..                            ",
"                          ..XXoooooo.OOOOO.oooooooooooooo.OOOOO.oooooX..                            ",
"                           ..Xoooooo..OOO..oooooooooooooo..OOO..oooooX..                            ",
"                           ..XXooooooo...oooooooooooooooooo...oooooooX..                            ",
"                           ..XXoooooooooooooooooooooooooooooooooooooXX..                            ",
"                           ..XXoooooooooooooooooooooooooooooooooooooXX..                            ",
"                            .XXoooooooooooooooooooooooooooooooooooooXX..                            ",
"                            .XXooooooooooooooooooooooooooooooooooooXXX.                             ",
"                            ..XXoooooooooo....oooooooooooooooooooooXX..                             ",
"                             .XXooooooooo.XXX...oooooo..ooooooooooXXX.                              ",
"                             .XXooooooooo.XXXXX........X.oooooooooXXX.                              ",
"                             ..XXooooooo.XXXXXXXXXXXXXXX..oooooooXXX.                               ",
"                              ..XXoooooo.XXXXXXXXXXXXXXXX.oooooooXX.                                ",
"                               .XXooooooo..XXXXXXXXXXXXXX.oooooooXX.                                ",
"                                .XXoooooooo.XXXXXXXXXXX..oooooooXX.                                 ",
"                                 .XXooooooo..............oooooooX.                                  ",
"                                  .XXXoooooooooooooooooooooooooX.                                   ",
"                                   .XXXooooooooooooooooooooooXX.                                    ",
"                                    .XXXXooooooooooooooooXXXXX.                                     ",
"                                     ..XXXXXXXXXXXXXXXXXXXXX..                                      ",
"                                       ..XXXXXXXXXXXXXXXXX..                                        ",
"                                         ....XXXXXXXXX....                                          ",
"                                             .........                                              ",
"                                                                                                    ",
"                                                                                                    ",
"                                                                                                    ",
"                                                                                                    ",
"                                                                                                    ",
"                                                                                                    ",
"                                                                                                    ",
"                                                                                                    ",
"                                                                                                    ",
"                                                                                                    ",
"                                                                                                    ",
"                                                                                                    ",
"                                                                                                    ",
"                                                                                                    ",
"                                                                                                    ",
"                                                                                                    ",
"                                                                                                    ",
"                                                                                                    ",
"                                                                                                    ",
"                                                                                                    ",
"                                                                                                    ",
"                                                                                                    ",
"                                                                                                    ",
"                                                                                                    ",
"                                                                                                    ",
"                                                                                                    ",
"                                                                                                    "
};
