/* XPM */
static char *f6b8df9550a04f43ccd3b187b0f8c1a9sl8d9vUx5c6qAKea[] = {
/* columns rows colors chars-per-pixel */
"100 100 5 1 ",
"  c None",
". c black",
"X c #FF5203",
"o c #F2D45A",
"O c white",
/* pixels */
"                                                                                                    ",
"                                                                                                    ",
"                                                                                                    ",
"                                                                                                    ",
"                                                                                                    ",
"                                                                                                    ",
"                                                                                                    ",
"                                                                                                    ",
"                                                                                                    ",
"                                                                                                    ",
"                                                                                                    ",
"                                                                                                    ",
"                                                                                                    ",
"                                                                                                    ",
"                                                                                                    ",
"                                                                                                    ",
"                                                                                                    ",
"                                                                                                    ",
"                                           .         .                                              ",
"                                          .X.       ...                                             ",
"                                   ....   .XX.      .XX.                                            ",
"                                ....XXX. .XXXX.    .XXXX.                                           ",
"                                 .XXXXXX..XXXXX..  .XXXXX.                                          ",
"                                  ..XXXX.XXXXXXXX..XXXXXXX.                                         ",
"                                  ..XXXXXXXXXXXXXX.XXXXXXXX.                                        ",
"                                 .X.XXXXXXXoXooXXXXXXXoXoXXX..                                      ",
"                            .....XXXXXoXXXXoooooXXXXXXoooXXXXX.                                     ",
"                           ..XXXXXXXXooooXXoooooXoXXoXooooXXXXX.                                    ",
"                           .XXXXXXXXXooooXoooooooXooooooooooXXXX.                                   ",
"                           .XXXooXXXoooooooooooooooooooooooooXXX.                                   ",
"                    ........XXoooooXooooooooooooooooooooooooooXXX.                                  ",
"                     .XXXXX.XXoooooooooooooooooooooooooooooooooXXX.                                 ",
"                      .XXXXXXXooooooooooooooooooooooooooooooooooXX.                                 ",
"                      .XXXXoXXooooooooooooooooooooooooooooooooooXXX.                                ",
"                       .XooooooooooooooooooooooooooooooooooooooooXX.                                ",
"                       ..XoooooooooooooooooooooooooooooooooooooooXX.                                ",
"                        .XXoooooooooooooooooooooooooooooooooooooooXX.                               ",
"                         XXXooooooooooooooooooooooooooooooooooooooXX.                               ",
"                          .XXooooooooooooooooooooooooooooooooooooooX.                               ",
"                          .XXooooooooooooooooooooooooooooooo...ooooXX.                              ",
"                          .XXooooooooooooooooooooooooooooo..OOO..oooX.                              ",
"                          .XXXoooooooooooooooooooooooooooo.OOOOO.oooX.                              ",
"                           .XXooooooooooooooooooooooooooo.OOOO..O.ooX.                              ",
"                           .XXooooooooooooooooooooooooooo.OOOO..O.ooX.                              ",
"                           .XXooooooooooooooooooooooooooo.OOOOOOO.ooX.                              ",
"                           .XXoooooooooooooooooooooooooooo.OOOOO.oooX.                              ",
"                           .XXoooooooooooooooooooooooooooo..OOO..oooX.                              ",
"                          .XXXoooooooooooooooooooooooooooooo...oooooX.                              ",
"                          .XXXooooooooooooooooooooooooooooooooooooooX.                              ",
"                          .XXXoooooooooooooooooooooooooooooooooooooXX.                              ",
"                          ..XXoooooooooooooooooooooooooooooooooooooXX.                              ",
"                          ..XXXooooooooooooooooooooooooooooooooooooXX.                              ",
"                           .XXXoooooooooooooooooooooooooooooooooooXXX.                              ",
"                           .XXXooooooooooooooooooooooooooooo...oooXXX.                              ",
"                           ..XXoooooooooooooooooooooooooooo.XXX.......                              ",
"                           ..XXoooooooooooooooooooooooooooo.XXXXXXXXX.                              ",
"                            .XXoooooooooooooooooooooooooooo.XXXXXXXXX.                              ",
"                            .XXoooooooooooooooooooooooooooo.XXXXXXXX.                               ",
"                            ..XXooooooooooooooooooooooooooo.XXXXXXXX.                               ",
"                             .XXoooooooooooooooooooooooooooo.XXXXXXX.                               ",
"                             .XXooooooooooooooooooooooooooooo.XXXXX.                                ",
"                             ..XXooooooooooooooooooooooooooooo......                                ",
"                              ..XXoooooooooooooooooooooooooooooooXX.                                ",
"                               .XXoooooooooooooooooooooooooooooooXX.                                ",
"                                .XXoooooooooooooooooooooooooooooXX.                                 ",
"                                 .XXooooooooooooooooooooooooooooX.                                  ",
"                                  .XXXoooooooooooooooooooooooooX.                                   ",
"                                   .XXXooooooooooooooooooooooXX.                                    ",
"                                    .XXXXooooooooooooooooXXXXX.                                     ",
"                                     ..XXXXXXXXXXXXXXXXXXXXX..                                      ",
"                                       ..XXXXXXXXXXXXXXXXX..                                        ",
"                                         ....XXXXXXXXX....                                          ",
"                                             .........                                              ",
"                                                                                                    ",
"                                                                                                    ",
"                                                                                                    ",
"                                                                                                    ",
"                                                                                                    ",
"                                                                                                    ",
"                                                                                                    ",
"                                                                                                    ",
"                                                                                                    ",
"                                                                                                    ",
"                                                                                                    ",
"                                                                                                    ",
"                                                                                                    ",
"                                                                                                    ",
"                                                                                                    ",
"                                                                                                    ",
"                                                                                                    ",
"                                                                                                    ",
"                                                                                                    ",
"                                                                                                    ",
"                                                                                                    ",
"                                                                                                    ",
"                                                                                                    ",
"                                                                                                    ",
"                                                                                                    ",
"                                                                                                    ",
"                                                                                                    "
};
