/* XPM */
static char *result[] = {
/* columns rows colors chars-per-pixel */
"32 32 2 1 ",
"  c #BF3222",
". c #DB422E",
/* pixels */
" . . ..  .... ....   .. .    . .",
".... ...     . ... .           .",
"    . .. .  . .. ..  . .     .  ",
" ... . ..       ..  .         ..",
"  . ..      ..   . .  .       . ",
"  .        ...  .     ..        ",
"  .. .    ..   .   . ..  .      ",
"         .    .  .  .   ..   .. ",
" ..   . ..  .    . ... ..   .   ",
".   ..   ..  . .. ... .     . . ",
" .. .  .    ........   . ...  ..",
".          ...........  . ......",
".     .  . ................ ....",
"         .... ......... . .. ...",
"  ....      ......  ...  .  .   ",
"..    . ...... ..........  .    ",
" .. .. ...   .  . ..... .     . ",
" . .   ..  .  .  . ...          ",
"....  ...   .     .. .          ",
".... .    ...    .  ..  .   .   ",
"... .     .   .  ..    .        ",
"... ..   ...    ..   ....       ",
".   ..            ... ...       ",
"  ..     . .    .        .. .   ",
"...        .   ..  ...          ",
" ...... .     ..... .   .. .    ",
" . .  .  .   . ....     .  . ...",
"       .      ..... .   ..     .",
". .     .   .....  .... . ......",
". ... .    .......... . .... ...",
"...           .............. ...",
"... . . .. .... .... . ....  ..."
};
