/* XPM */
static char *result[] = {
/* columns rows colors chars-per-pixel */
"32 32 19 1 ",
"  c #B33B1D",
". c #C73814",
"X c #C2492B",
"o c #628587",
"O c #92AFAE",
"+ c #8EB8B8",
"@ c #8EB9B9",
"# c #8EBBBC",
"$ c #8BBDBF",
"% c #8BBFBF",
"& c #8CBEBF",
"* c #90B4B3",
"= c #90B6B5",
"- c #8BBEC0",
"; c #8BBFC0",
": c #8BBEC1",
"> c #8CBFC2",
", c #AFD2D4",
"< c #BDDCDE",
/* pixels */
"      XXXXX .XX. X X.XXXX  X X  ",
"   XXXX.XXXXXX. XXX X.. .X  X   ",
"     .XXXXXXX.XXX...XX.XX. X    ",
"  X X XXX XXX XXXX.XX..XX.. X   ",
"   XXXX.XXXXXXXX. XX.XXX..    X ",
" XXXXXX XX X XXXXXXXX. X.XX...X ",
" .XXXXXXXXXXXXXXXX.XXXXX .   .X ",
"  XX.XXXXXXXX>>>>>>>XXXXXXXX..  ",
" XXXXXXXX X>>>>>>>>>>oXXXXX.XXX ",
"XX XXX.XX.,>>>>>>>>>>ooXXX XX   ",
"XX XX.XXX,>>>>>+>>>>>>ooXXXX. . ",
".XXX.XXX,,>>>>$@>>>>>>oooXXXXXX.",
"X.XXX X,,>&>>>>>>>>;<>>oooXX.X.X",
"XXX XXX,,::%>>>:>:>:<<>>ooXXX.X.",
"X XX.X,,>%>>:>>>::>:><<>>ooXX.XX",
".XXXXX,>>>>>::>>:::>><<<>ooX.X..",
"XXXXXX,>>>:::>>::::>><<<>ooXXXX.",
"X. XXX,>$>>>>>:::>>>:>;>>ooX.X .",
"X.XXXX,>>>>>::::>:::::<<>ooXXX.X",
"XXXXX.,>>>>:::>>::::::<<>ooX.XX.",
"XXXXXX,,>>>>>>>>>::::<<<>ooXXX.X",
"XXXXXXX,>>>>>>>>>:::><<>>oXXXXXX",
"XXXXXXX,>*>>>>>>>>>+<<>>ooXXX.XX",
"XXXXXXXX,>>::>>>>:#>O>>ooXX..XXX",
"XXXXXXXXX,>>::>>>>>>>>>oXXXX.XX.",
"XXXXXXXXXX,>>>=%-:>>>>oXX X.X...",
"XXXXXXXXXXX,,>>>>>>>oo..XXXXX.X.",
"XXXXXXX XXX.X>>>>>>>X.XXXX....X ",
".XXX XXXXXXXXXXXXXXX ..XX.XXX...",
"XXX  X.. XXXXXX.X.XX. ..X.XXXXXX",
" XX.X .XX X  X.X XXXXX . XX.X...",
".   X  X...  XX..X  XX. .  X..X "
};
