/* XPM */
static char *result[] = {
/* columns rows colors chars-per-pixel */
"32 32 9 1 ",
"  c black",
". c #521710",
"X c #6B2016",
"o c #7A2218",
"O c #73092B",
"+ c #9E0D3D",
"@ c #992E20",
"# c #DB422E",
"$ c #BD0B46",
/* pixels */
"################################",
"#################$$#############",
"#############XXX+$XXXXX#########",
"##########XXX@@+@@@@@@@X########",
"#########X@@@@+@@@@@@@@@X#######",
"########X@@ooooOooooooo@@X######",
"###$$##X@@ooooOooooooooo@@X#####",
"#####$X@@@o..O.......oooo+@X$###",
"#####+@@oo...O.........o+o++$###",
"####X@+oo....      ...OOoo@@@X##",
"####X@+OO..          O...oo@@X##",
"####Xoo..O            ...oo@@X##",
"###X@oo...             ...o@@@X#",
"###X@oo...             ...o+@+$#",
"###X@ooO.              ..OOo+@$#",
"##$++OO.O              OOOoo@@X$",
"##$X@oo..              ...oo@@X#",
"#$#X@@o..              ...oo@@X#",
"###X@@o...             OO.oo@XX#",
"###X@@oo....          ..O.oo@X##",
"###X@@ooo..O.         ..Oooo@X##",
"###X@@@oo.O....    ......+o@@X##",
"####X@@o+O......O.......oo+@X###",
"#####X@+ooo.....OO....ooo+@X####",
"######X+@@ooo....O...ooo@@$#####",
"######$X@@@oooooOoooooo@@X$#####",
"#####$##X@@@@ooo+oooo@@@X##$####",
"#########X@@@@@@@+@@@@@X########",
"##########XXXXXXX+XXXXX#########",
"#################$##############",
"################$###############",
"################################"
};
